<svg width="26" height="15" viewBox="0 0 26 15" fill="none" xmlns="http://www.w3.org/2000/svg">
<path fill-rule="evenodd" clip-rule="evenodd" d="M17.4519 0.314703C17.5514 0.214947 17.6696 0.1358 17.7998 0.0817982C17.9299 0.0277962 18.0694 0 18.2103 0C18.3512 0 18.4907 0.0277962 18.6209 0.0817982C18.751 0.1358 18.8692 0.214947 18.9687 0.314703L25.3959 6.74187C25.4957 6.84138 25.5748 6.95959 25.6288 7.08973C25.6828 7.21987 25.7106 7.35938 25.7106 7.50028C25.7106 7.64118 25.6828 7.78069 25.6288 7.91083C25.5748 8.04097 25.4957 8.15918 25.3959 8.25869L18.9687 14.6859C18.7676 14.887 18.4948 15 18.2103 15C17.9259 15 17.6531 14.887 17.4519 14.6859C17.2508 14.4847 17.1378 14.2119 17.1378 13.9275C17.1378 13.643 17.2508 13.3702 17.4519 13.169L23.1228 7.50028L17.4519 1.83152C17.3522 1.73201 17.273 1.6138 17.219 1.48366C17.165 1.35352 17.1372 1.21401 17.1372 1.07311C17.1372 0.93221 17.165 0.792695 17.219 0.662555C17.273 0.532416 17.3522 0.414208 17.4519 0.314703Z" fill="white"/>
<path fill-rule="evenodd" clip-rule="evenodd" d="M0 7.50015C0 7.21605 0.112858 6.94359 0.313746 6.7427C0.514634 6.54181 0.787097 6.42896 1.0712 6.42896H23.5663C23.8504 6.42896 24.1229 6.54181 24.3237 6.7427C24.5246 6.94359 24.6375 7.21605 24.6375 7.50015C24.6375 7.78425 24.5246 8.05671 24.3237 8.2576C24.1229 8.45849 23.8504 8.57135 23.5663 8.57135H1.0712C0.787097 8.57135 0.514634 8.45849 0.313746 8.2576C0.112858 8.05671 0 7.78425 0 7.50015Z" fill="white"/>
</svg>
