<svg width="65" height="65" viewBox="0 0 65 65" fill="none" xmlns="http://www.w3.org/2000/svg">
<path d="M17.2352 24.568L13.2031 48.75L5.07812 47.7344L7.90156 13.8531C8.04375 12.0961 8.68359 10.4305 9.73984 9.01876C10.6742 7.76954 11.9234 6.77423 13.3453 6.12423L19.2969 3.41251V7.58672C19.2969 10.4406 20.7898 13.0813 23.2375 14.5539L24.375 15.2344L21.3281 17.2656C23.8266 21.6328 28.2344 23.7047 31.2609 24.6492C30.9969 24.9133 30.7328 25.1469 30.4688 25.3906V57.7688C30.4688 59.15 31.0172 60.4703 31.9922 61.4453C31.0172 62.4203 29.6969 62.9688 28.3156 62.9688H17.2656C17.2656 62.9688 17.2656 28.1125 17.2656 25.3906C17.2656 25.1164 17.2555 24.8422 17.2352 24.568Z" fill="#F75D25"/>
<path d="M57.0984 13.8531C56.9563 12.0961 56.3164 10.4305 55.2602 9.01876C54.3258 7.76954 53.0766 6.77423 51.6547 6.12423L45.7031 3.41251V7.58672C45.7031 10.4406 44.2102 13.0813 41.7625 14.5539L40.625 15.2344L43.6719 17.2656C39.6094 24.375 30.4688 25.3906 30.4688 25.3906V57.7688C30.4688 59.15 31.0172 60.4703 31.9922 61.4453C32.9672 62.4203 34.2875 62.9688 35.6687 62.9688H47.7344C47.7344 62.9688 47.7344 28.1125 47.7344 25.3906C47.7344 25.1164 47.7445 24.8422 47.7648 24.568L51.7969 48.75L59.9219 47.7344L57.0984 13.8531Z" fill="#F75D25"/>
<path d="M25.3906 47.7344V49.7656C25.3906 52.0102 23.5727 53.8281 21.3281 53.8281H17.2656C17.2656 51.9391 17.2656 49.8672 17.2656 47.7344H25.3906Z" fill="#FF826E"/>
<path d="M25.3906 43.6719V47.7344H17.2656C17.2656 46.3937 17.2656 45.0328 17.2656 43.6719H25.3906Z" fill="#FC6E51"/>
<path d="M47.7344 47.7344V53.8281H43.6719C41.4273 53.8281 39.6094 52.0102 39.6094 49.7656V47.7344H47.7344Z" fill="#FF826E"/>
<path d="M47.7344 43.6719V47.7344H39.6094V43.6719H47.7344Z" fill="#FC6E51"/>
<path d="M41.082 6.09375C40.0156 12.6141 37.0297 18.6469 32.5 23.4203L32.4391 23.3594C27.9602 18.5961 24.9742 12.5836 23.918 6.09375H41.082Z" fill="#EAF9FF"/>
<path d="M41.6406 2.03125L41.2242 5.13906C41.1836 5.45391 41.1328 5.77891 41.082 6.09375H23.918C23.8672 5.77891 23.8164 5.46406 23.7758 5.13906L23.3594 2.03125H32.5H41.6406Z" fill="#57AEFF"/>
<path d="M23.918 6.09375C24.9742 12.5836 27.9602 18.5961 32.4391 23.3594L32.5 23.4203C32.1039 23.8367 31.6977 24.2531 31.2711 24.6492H31.2609C28.2344 23.7047 23.8266 21.6328 21.3281 17.2656L24.375 15.2344L23.2375 14.5539C20.7898 13.0813 19.2969 10.4406 19.2969 7.58672V3.4125L22.3438 2.03125H23.3594L23.7758 5.13906C23.8164 5.46406 23.8672 5.77891 23.918 6.09375Z" fill="#FFC729"/>
<path d="M32.5 23.4203C37.0297 18.6469 40.0156 12.6141 41.082 6.09375C41.1328 5.77891 41.1836 5.45391 41.2242 5.13906L41.6406 2.03125H42.6562L45.7031 3.4125V7.58672C45.7031 10.4406 44.2102 13.0813 41.7625 14.5539L40.625 15.2344L43.6719 17.2656C39.6094 24.375 30.4688 25.3906 30.4688 25.3906C30.7328 25.1469 30.9969 24.9133 31.2609 24.6492H31.2711C31.6977 24.2531 32.1039 23.8367 32.5 23.4203Z" fill="#FFC729"/>
<path d="M61.0146 48.621L58.1099 13.7668C57.9484 11.8239 57.2436 9.97242 56.0736 8.41141C55.0346 7.02508 53.6503 5.91297 52.0741 5.19594L42.8766 1.01562H32.4999H22.1233L12.9258 5.19594C11.3485 5.91297 9.96523 7.02508 8.92625 8.41141C7.75625 9.97242 7.0514 11.8239 6.88992 13.7668L3.98523 48.621L14.044 49.8784L16.2499 36.6448V63.9844H28.3145C29.6582 63.9844 30.9318 63.5548 31.9921 62.7727C33.0524 63.5548 34.326 63.9844 35.6697 63.9844H48.7499V36.6448L50.9559 49.8784L61.0146 48.621ZM44.6874 4.07062V7.58773C44.6874 10.0699 43.3651 12.4069 41.2363 13.6835L39.5392 14.7012C40.8768 11.7274 41.7949 8.55664 42.2327 5.27617L42.5241 3.0875L44.6874 4.07062ZM32.5101 21.8959C28.7746 17.6719 26.2508 12.6171 25.1437 7.10938H39.8591C38.748 12.6059 36.208 17.7054 32.5101 21.8959ZM31.1136 23.3807C31.0791 23.4152 31.0455 23.4518 31.01 23.4863C28.2922 22.5601 24.9112 20.8223 22.7093 17.5652L25.8151 15.4954C27.1841 18.3412 28.9706 20.9848 31.1136 23.3807ZM39.1746 15.4883L42.2895 17.5642C39.9983 20.9463 36.3979 22.688 33.7491 23.5615C35.9439 21.1372 37.767 18.4163 39.1746 15.4883ZM40.4807 3.04688L40.2197 5.00906C40.2166 5.03242 40.2116 5.05477 40.2085 5.07812H24.7923C24.7893 5.05477 24.7832 5.03242 24.7802 5.00906L24.5191 3.04688H32.4999H40.4807ZM22.4757 3.0875L22.7672 5.2782C23.207 8.57492 24.1302 11.7345 25.4647 14.7042L23.7645 13.6845C21.6348 12.4059 20.3124 10.0699 20.3124 7.58773V4.07062L22.4757 3.0875ZM18.2812 48.75H24.3749V49.7656C24.3749 51.4455 23.0079 52.8125 21.328 52.8125H18.2812V48.75ZM24.3749 46.7188H18.2812V44.6875H24.3749V46.7188ZM18.2812 61.9531V54.8438H21.328C24.1281 54.8438 26.4062 52.5657 26.4062 49.7656V42.6562H18.2812V25.3906C18.2812 25.1469 18.2598 24.9092 18.2456 24.6695L18.267 24.5426L18.2395 24.5375C17.818 18.4955 13.1147 13.7099 12.9055 13.5007L11.4684 14.9368C11.513 14.9815 15.7746 19.3294 16.2073 24.5507L12.3621 47.6227L6.17086 46.8487L8.91304 13.9364C9.04406 12.3744 9.60976 10.8855 10.5502 9.63016C11.3861 8.51602 12.4982 7.62227 13.7667 7.04539L18.2812 4.99383V7.58773C18.2812 10.6854 19.8828 13.6063 22.4798 15.277L19.9762 16.9467L20.4465 17.7704C22.6941 21.7029 26.3442 23.8794 29.453 25.0819V57.7687C29.453 59.0484 29.841 60.2662 30.554 61.297C29.8898 61.7195 29.122 61.9531 28.3145 61.9531H18.2812ZM40.6249 48.75H46.7187V52.8125H43.6718C41.992 52.8125 40.6249 51.4455 40.6249 49.7656V48.75ZM40.6249 46.7188V44.6875H46.7187V46.7188H40.6249ZM46.7187 25.3906V42.6562H38.5937V49.7656C38.5937 52.5657 40.8717 54.8438 43.6718 54.8438H46.7187V61.9531H35.6697C34.5505 61.9531 33.5003 61.5174 32.7102 60.7273C31.9312 59.9473 31.4843 58.8687 31.4843 57.7677V26.257C33.9766 25.7969 41.0007 23.986 44.5534 17.7694L45.0236 16.9457L42.5201 15.276C45.117 13.6053 46.7187 10.6854 46.7187 7.58773V4.99383L51.2321 7.04539C52.5006 7.62227 53.6127 8.51602 54.4486 9.63016C55.3901 10.8845 55.9548 12.3734 56.0858 13.9354L58.828 46.8477L52.6367 47.6216L48.7916 24.5497C49.2242 19.3284 53.4848 14.9815 53.5305 14.9358L52.0934 13.4997C51.8841 13.7089 47.1808 18.4945 46.7593 24.5365L46.7319 24.5416L46.7532 24.6685C46.74 24.9092 46.7187 25.1469 46.7187 25.3906Z" fill="#393C47"/>
<path d="M34.5312 53.8281C35.0922 53.8281 35.5469 53.3734 35.5469 52.8125C35.5469 52.2516 35.0922 51.7969 34.5312 51.7969C33.9703 51.7969 33.5156 52.2516 33.5156 52.8125C33.5156 53.3734 33.9703 53.8281 34.5312 53.8281Z" fill="#393C47"/>
<path d="M34.5312 49.7656C35.0922 49.7656 35.5469 49.3109 35.5469 48.75C35.5469 48.1891 35.0922 47.7344 34.5312 47.7344C33.9703 47.7344 33.5156 48.1891 33.5156 48.75C33.5156 49.3109 33.9703 49.7656 34.5312 49.7656Z" fill="#393C47"/>
<path d="M34.5312 45.7031C35.0922 45.7031 35.5469 45.2484 35.5469 44.6875C35.5469 44.1266 35.0922 43.6719 34.5312 43.6719C33.9703 43.6719 33.5156 44.1266 33.5156 44.6875C33.5156 45.2484 33.9703 45.7031 34.5312 45.7031Z" fill="#393C47"/>
<path d="M34.5312 41.6406C35.0922 41.6406 35.5469 41.1859 35.5469 40.625C35.5469 40.0641 35.0922 39.6094 34.5312 39.6094C33.9703 39.6094 33.5156 40.0641 33.5156 40.625C33.5156 41.1859 33.9703 41.6406 34.5312 41.6406Z" fill="#393C47"/>
<path d="M34.5312 37.5781C35.0922 37.5781 35.5469 37.1234 35.5469 36.5625C35.5469 36.0016 35.0922 35.5469 34.5312 35.5469C33.9703 35.5469 33.5156 36.0016 33.5156 36.5625C33.5156 37.1234 33.9703 37.5781 34.5312 37.5781Z" fill="#393C47"/>
<path d="M34.5312 33.5156C35.0922 33.5156 35.5469 33.0609 35.5469 32.5C35.5469 31.9391 35.0922 31.4844 34.5312 31.4844C33.9703 31.4844 33.5156 31.9391 33.5156 32.5C33.5156 33.0609 33.9703 33.5156 34.5312 33.5156Z" fill="#393C47"/>
<path d="M38.5938 28.4375H44.6875V30.4688H38.5938V28.4375Z" fill="#393C47"/>
</svg>
