<svg width="73" height="73" viewBox="0 0 73 73" fill="none" xmlns="http://www.w3.org/2000/svg">
<path d="M57.7156 57.0312C57.3164 57.248 56.883 57.4305 56.4381 57.5673L43.9027 61.4227C43.5377 61.5367 43.1498 61.5938 42.762 61.5938H42.6822C40.5264 61.5938 38.7812 59.8486 38.7812 57.6928C38.7812 57.4647 38.8041 57.248 38.8383 57.0312H34.2188H27.375H18.25V64.3769C18.8431 64.6392 19.402 65.027 19.8697 65.4947L19.8811 65.5061L21.1586 63.8066C22.1966 62.415 23.8391 61.5938 25.5728 61.5938H34.2188H34.6066C35.8156 61.5938 36.9791 62.0728 37.8345 62.9283L40.3895 65.4833C40.823 65.9167 41.4047 66.1562 42.0092 66.1562H49.0469C50.3016 66.1562 51.3281 67.1828 51.3281 68.4375C51.3281 69.0648 51.0772 69.6352 50.6552 70.0458C50.2445 70.4678 49.6742 70.7188 49.0469 70.7188H70.7188V57.0312H57.7156Z" fill="#CF9E76"/>
<path d="M36.5 47.9062V52.4688H34.2188H31.9375V47.9062H36.5Z" fill="#57AEFF"/>
<path d="M34.2188 38.7812C36.7395 38.7812 38.7812 40.823 38.7812 43.3438V45.625C38.7812 46.8797 37.7547 47.9062 36.5 47.9062H31.9375H30.603C29.9984 47.9062 29.4167 47.6667 28.9833 47.2333L27.375 45.625H20.5312C19.2766 45.625 18.25 46.6516 18.25 47.9062V57.0312V64.3769C17.5428 64.0461 16.7558 63.875 15.9573 63.875C13.87 63.875 11.9537 65.0613 11.0184 66.9319L9.125 70.7188H2.28125V43.3438C2.28125 40.823 4.32297 38.7812 6.84375 38.7812H27.375H34.2188Z" fill="#57AEFF"/>
<path d="M10.2656 50.1875C12.1555 50.1875 13.6875 48.6555 13.6875 46.7656C13.6875 44.8758 12.1555 43.3438 10.2656 43.3438C8.37578 43.3438 6.84375 44.8758 6.84375 46.7656C6.84375 48.6555 8.37578 50.1875 10.2656 50.1875Z" fill="#F75D25"/>
<path d="M10.2656 61.5938C12.1555 61.5938 13.6875 60.0617 13.6875 58.1719C13.6875 56.282 12.1555 54.75 10.2656 54.75C8.37578 54.75 6.84375 56.282 6.84375 58.1719C6.84375 60.0617 8.37578 61.5938 10.2656 61.5938Z" fill="#F75D25"/>
<path d="M19.8811 65.5061L25.0938 70.7188H9.125L11.0184 66.9319C11.9537 65.0613 13.87 63.875 15.9573 63.875C16.7558 63.875 17.5428 64.0461 18.25 64.3769C18.8431 64.6392 19.402 65.027 19.8697 65.4947L19.8811 65.5061Z" fill="#FC6E51"/>
<path d="M49.0469 66.1562C50.3016 66.1562 51.3281 67.1828 51.3281 68.4375C51.3281 69.0648 51.0772 69.6352 50.6552 70.0458C50.2445 70.4678 49.6742 70.7188 49.0469 70.7188H47.9063H25.0938L19.8811 65.5061L21.1586 63.8066C22.1966 62.415 23.8391 61.5938 25.5728 61.5938H34.2188H34.6066C35.8156 61.5938 36.9791 62.0728 37.8345 62.9283L40.3895 65.4833C40.823 65.9167 41.4047 66.1562 42.0092 66.1562H49.0469Z" fill="#FF826E"/>
<path d="M61.5938 42.2031V46.7656H54.75V45.625V42.2031H61.5938Z" fill="#FFC729"/>
<path d="M61.5938 38.8725V42.2031H54.75V31.9375L55.8792 32.12C59.1756 32.6789 61.5938 35.5305 61.5938 38.8725Z" fill="#F75D25"/>
<path d="M34.2188 31.9375V38.7812H27.375C27.4206 35.4734 29.8273 32.6675 33.0895 32.12L34.2188 31.9375Z" fill="#F75D25"/>
<path d="M54.75 46.7656V50.1875L41.61 53.9402C40.7659 54.1797 40.0587 54.6816 39.5683 55.3431C39.1919 55.8336 38.9409 56.4153 38.8383 57.0313H34.2188V52.4688H36.5V47.9063C37.7547 47.9063 38.7812 46.8797 38.7812 45.625V43.3438C38.7812 40.823 36.7395 38.7813 34.2188 38.7813V31.9375L35.3594 31.7436L37.2528 31.4356C37.9144 31.3216 38.5303 31.0706 39.055 30.717L39.3516 33.1124C39.5113 34.4013 40.15 35.5419 41.0625 36.3517C41.975 37.1616 43.1841 37.6406 44.4844 37.6406C47.0964 37.6406 49.2864 35.7016 49.6172 33.1124L49.9137 30.717C50.4384 31.0706 51.0544 31.3216 51.7159 31.4356L53.6094 31.7436L54.75 31.9375V42.2031V45.625V46.7656Z" fill="#F75D25"/>
<path d="M49.9137 30.717C48.6933 29.8844 47.9062 28.4928 47.9062 26.9302V25.55C50.5981 24.3295 52.4688 21.6262 52.4688 18.4895V16.1056C52.4688 14.7711 51.3852 13.6875 50.0506 13.6875H45.4881C44.8494 13.6875 44.2334 13.4366 43.7772 12.9803L42.2031 11.4062L40.6291 12.9803C40.1728 13.4366 39.5569 13.6875 38.9181 13.6875C37.5836 13.6875 36.5 14.7711 36.5 16.1056V18.25C36.5 21.4209 38.3592 24.1698 41.0625 25.4587V26.9302C41.0625 28.4928 40.2755 29.8844 39.055 30.717C38.5303 31.0706 37.9144 31.3216 37.2528 31.4356L35.3594 31.7436L34.2986 31.5725C31.4812 31.1048 29.2114 29.0061 28.5156 26.2344C29.6106 25.1394 30.4661 23.8505 31.0478 22.4475C31.6295 21.0331 31.9375 19.5275 31.9375 17.9762V14.8281C31.9375 7.89312 37.5494 2.28125 44.4844 2.28125C47.9519 2.28125 51.0886 3.68422 53.3584 5.95406C55.6283 8.22391 57.0312 11.3606 57.0312 14.8281V17.9762C57.0312 21.0673 58.2631 24.0444 60.4531 26.2344C60.1109 27.6259 59.3581 28.835 58.3544 29.7703C57.3506 30.6942 56.0731 31.3444 54.6702 31.5725L53.6094 31.7436L51.7159 31.4356C51.0544 31.3216 50.4384 31.0706 49.9137 30.717Z" fill="#656D78"/>
<path d="M54.75 50.1875V46.7656H61.5938V50.5867C61.5938 52.5258 60.8295 54.3736 59.4494 55.7538C58.9361 56.267 58.3544 56.6891 57.7156 57.0312C57.3164 57.248 56.883 57.4305 56.4381 57.5673L43.9027 61.4227C43.5377 61.5367 43.1498 61.5938 42.762 61.5938H42.6822C40.5264 61.5938 38.7812 59.8486 38.7812 57.6928C38.7812 57.4647 38.8041 57.248 38.8383 57.0312C38.9409 56.4153 39.1919 55.8336 39.5683 55.3431C40.0587 54.6816 40.7659 54.1797 41.61 53.9402L54.75 50.1875Z" fill="#F0D0B4"/>
<path d="M30.603 47.9062H31.9375V52.4688H34.2188V57.0312H27.375V45.625L28.9833 47.2333C29.4167 47.6667 29.9984 47.9062 30.603 47.9062Z" fill="#F0D0B4"/>
<path d="M49.9137 30.717L49.6171 33.1123C49.2863 35.7016 47.0963 37.6406 44.4843 37.6406C43.184 37.6406 41.9749 37.1616 41.0624 36.3517C40.1499 35.5419 39.5112 34.4012 39.3515 33.1123L39.0549 30.717C40.2754 29.8844 41.0624 28.4928 41.0624 26.9301V25.4587C42.1118 25.9606 43.2752 26.2344 44.5185 26.2344H44.7238C45.8531 26.2344 46.9366 25.9948 47.9062 25.55V26.9301C47.9062 28.4928 48.6932 29.8844 49.9137 30.717Z" fill="#F0D0B4"/>
<path d="M52.4688 16.1056V18.4895C52.4688 21.6262 50.5981 24.3295 47.9062 25.55C46.9367 25.9948 45.8531 26.2344 44.7239 26.2344H44.5186C43.2753 26.2344 42.1119 25.9606 41.0625 25.4587C38.3592 24.1698 36.5 21.4209 36.5 18.25C36.5 17.4744 36.5 16.7444 36.5 16.1056C36.5 14.7711 37.5836 13.6875 38.9181 13.6875C39.5569 13.6875 40.1728 13.4366 40.6291 12.9803L42.2031 11.4062L43.7772 12.9803C44.2334 13.4366 44.8494 13.6875 45.4881 13.6875H50.0506C51.3852 13.6875 52.4688 14.7711 52.4688 16.1056Z" fill="#F0D0B4"/>
<path d="M60.8569 55.8906C62.0728 54.393 62.7344 52.5395 62.7344 50.5844V38.8759C62.7344 35.6046 60.7759 32.7622 57.881 31.536C59.6764 30.417 61.0257 28.6445 61.5584 26.5115L61.7158 25.8853L61.2595 25.4291C59.268 23.4364 58.1719 20.789 58.1719 17.9728V14.8281C58.1719 7.28061 52.0319 1.14062 44.4844 1.14062C36.9369 1.14062 30.7969 7.28061 30.7969 14.8281V17.9728C30.7969 20.789 29.7007 23.4364 27.7092 25.428L27.253 25.8842L27.4104 26.5104C27.9465 28.6525 29.3038 30.4296 31.1117 31.5485C28.592 32.6162 26.7785 34.9031 26.3519 37.6406H6.84375C3.69905 37.6406 1.14062 40.199 1.14062 43.3438V71.8594H47.9062H49.0469H71.8594V55.8906H60.8569ZM37.9897 55.8906H35.3594V53.6094H37.6406V48.837C38.9649 48.3648 39.9219 47.1101 39.9219 45.625V43.3438C39.9219 40.5903 37.9589 38.2862 35.3594 37.7558V32.9036L37.4365 32.5569C37.6714 32.5181 37.8916 32.4462 38.1151 32.3812L38.2246 33.2549C38.617 36.4053 41.3089 38.7812 44.4844 38.7812C47.6599 38.7812 50.3517 36.4053 50.7441 33.2549L50.8536 32.3812C51.076 32.4474 51.2973 32.5181 51.5323 32.5569L53.6094 32.9036V45.625V47.9062V49.3275L41.2975 52.8452C39.7508 53.2866 38.5497 54.4455 37.9897 55.8906ZM33.0781 60.4531H25.5751C23.4889 60.4531 21.4951 61.45 20.2427 63.1188L19.6815 63.867C19.5868 63.8031 19.4887 63.7484 19.3906 63.6891V58.1719H33.0781V60.4531ZM19.0621 66.3L22.3403 69.5781H10.9705L12.0404 67.4395C12.7875 65.9441 14.2898 65.0156 15.9608 65.0156C17.1333 65.0156 18.234 65.4719 19.0621 66.3ZM26.2344 55.8906H19.3906V47.9062C19.3906 47.2778 19.9016 46.7656 20.5312 46.7656H26.2344V55.8906ZM28.5156 55.8906V48.3192C29.1122 48.7834 29.833 49.0469 30.6007 49.0469H30.7969V53.6094H33.0781V55.8906H28.5156ZM33.0781 51.3281V49.0469H35.3594V51.3281H33.0781ZM41.4366 13.7856L42.2031 13.0191L42.9696 13.7856C43.6323 14.4483 44.5494 14.8281 45.487 14.8281H50.0495C50.7544 14.8281 51.3281 15.4019 51.3281 16.1068V18.4884C51.3281 22.1304 48.3648 25.0938 44.7239 25.0938H44.5232C40.7283 25.0938 37.6406 22.0232 37.6406 18.2477V16.1045C37.6406 15.4007 38.2144 14.8281 38.9193 14.8281C39.8569 14.8281 40.7739 14.4483 41.4366 13.7856ZM44.5232 27.375H44.7239C45.4334 27.375 46.1212 27.2826 46.7827 27.1241C46.8375 28.7415 47.5549 30.1969 48.7024 31.2064L48.4811 32.972C48.229 34.983 46.5113 36.5 44.4844 36.5C42.4575 36.5 40.7397 34.983 40.4876 32.972L40.2663 31.2064C41.4286 30.1844 42.1529 28.7061 42.1906 27.0636C42.9377 27.2598 43.7167 27.375 44.5232 27.375ZM55.8906 43.3438H60.4531V45.625H55.8906V43.3438ZM41.9237 55.0386L54.4181 51.4684L56.2248 53.2752L57.8377 51.6623L55.8906 49.7153V47.9062H60.4531V50.5844C60.4531 52.2304 59.8121 53.7782 58.6487 54.9416C57.9392 55.6511 57.0586 56.1803 56.1028 56.4746L43.5673 60.3311C43.3061 60.4121 43.0335 60.4531 42.6822 60.4531C41.1606 60.4531 39.9219 59.2144 39.9219 57.6928C39.9219 56.4666 40.7454 55.3751 41.9237 55.0386ZM60.4531 38.8759V41.0625H55.8906V33.3028C58.5437 33.8446 60.4531 36.1475 60.4531 38.8759ZM29.7988 26.5389C31.9181 24.1824 33.0781 21.1666 33.0781 17.9728V14.8281C33.0781 8.53872 38.195 3.42188 44.4844 3.42188C50.7738 3.42188 55.8906 8.53872 55.8906 14.8281V17.9728C55.8906 21.1666 57.0506 24.1813 59.1699 26.5378C58.4354 28.5772 56.6548 30.0828 54.4865 30.4444L53.6094 30.5904L51.9076 30.3064C50.2502 30.0315 49.0469 28.6114 49.0469 26.9313V26.2458C51.765 24.7242 53.6094 21.819 53.6094 18.4884V16.1068C53.6094 14.1438 52.0125 12.5469 50.0495 12.5469H45.487C45.1505 12.5469 44.8209 12.41 44.5825 12.1727L43.3438 10.934V6.84375H41.0625V10.934L39.8238 12.1727C39.5854 12.41 39.2557 12.5469 38.9193 12.5469C36.9562 12.5469 35.3594 14.1426 35.3594 16.1045V18.2477C35.3594 21.6091 37.1981 24.544 39.9219 26.1283V26.9324C39.9219 28.6126 38.7185 30.0315 37.0623 30.3075L35.3605 30.5916L34.4834 30.4456C32.3139 30.084 30.5334 28.5784 29.7988 26.5389ZM33.0781 33.3028V37.6406H28.6616C29.1407 35.4757 30.8482 33.7591 33.0781 33.3028ZM3.42188 43.3438C3.42188 41.4572 4.95716 39.9219 6.84375 39.9219H34.2188C36.1053 39.9219 37.6406 41.4572 37.6406 43.3438V45.625C37.6406 46.2535 37.1296 46.7656 36.5 46.7656H30.6007C30.3007 46.7656 30.0064 46.6436 29.7943 46.4314L27.8472 44.4844H20.5312C18.6447 44.4844 17.1094 46.0197 17.1094 47.9062V62.8382C16.733 62.7732 16.3509 62.7344 15.9608 62.7344C13.4195 62.7344 11.1359 64.1465 9.99872 66.4186L8.42009 69.5781H3.42188V43.3438ZM47.9062 69.5781H25.566L21.3856 65.3977L22.0677 64.4887C22.8912 63.3902 24.2029 62.7344 25.5751 62.7344H34.61C35.5248 62.7344 36.3848 63.0902 37.0304 63.7358L39.5877 66.2943C40.2333 66.941 41.0933 67.2969 42.0069 67.2969H49.0469C49.6765 67.2969 50.1875 67.809 50.1875 68.4375C50.1875 69.066 49.6765 69.5781 49.0469 69.5781H47.9062ZM69.5781 69.5781H52.2589C52.3866 69.22 52.4688 68.839 52.4688 68.4375C52.4688 66.5509 50.9335 65.0156 49.0469 65.0156H42.0069C41.707 65.0156 41.4127 64.8936 41.2005 64.6814L38.6432 62.123C37.7456 61.2253 36.597 60.6881 35.3594 60.5261V58.1719H37.6897C37.9349 60.7246 40.0713 62.7344 42.7575 62.7344C43.2628 62.7344 43.7624 62.6591 44.2403 62.5108L56.7735 58.6555C57.1852 58.5289 57.581 58.3601 57.9677 58.1719H69.5781V69.5781Z" fill="#393C47"/>
<path d="M10.2656 51.3281C12.7818 51.3281 14.8281 49.2818 14.8281 46.7656C14.8281 44.2494 12.7818 42.2031 10.2656 42.2031C7.74941 42.2031 5.70312 44.2494 5.70312 46.7656C5.70312 49.2818 7.74941 51.3281 10.2656 51.3281ZM10.2656 44.4844C11.5237 44.4844 12.5469 45.5075 12.5469 46.7656C12.5469 48.0237 11.5237 49.0469 10.2656 49.0469C9.00752 49.0469 7.98438 48.0237 7.98438 46.7656C7.98438 45.5075 9.00752 44.4844 10.2656 44.4844Z" fill="#393C47"/>
<path d="M10.2656 62.7344C12.7818 62.7344 14.8281 60.6881 14.8281 58.1719C14.8281 55.6557 12.7818 53.6094 10.2656 53.6094C7.74941 53.6094 5.70312 55.6557 5.70312 58.1719C5.70312 60.6881 7.74941 62.7344 10.2656 62.7344ZM10.2656 55.8906C11.5237 55.8906 12.5469 56.9138 12.5469 58.1719C12.5469 59.43 11.5237 60.4531 10.2656 60.4531C9.00752 60.4531 7.98438 59.43 7.98438 58.1719C7.98438 56.9138 9.00752 55.8906 10.2656 55.8906Z" fill="#393C47"/>
<path d="M34.2188 44.4844C34.8487 44.4844 35.3594 43.9737 35.3594 43.3438C35.3594 42.7138 34.8487 42.2031 34.2188 42.2031C33.5888 42.2031 33.0781 42.7138 33.0781 43.3438C33.0781 43.9737 33.5888 44.4844 34.2188 44.4844Z" fill="#393C47"/>
<path d="M65.0156 65.0156H67.2969V67.2969H65.0156V65.0156Z" fill="#393C47"/>
<path d="M65.0156 60.4531H67.2969V62.7344H65.0156V60.4531Z" fill="#393C47"/>
</svg>
