<svg width="54" height="54" viewBox="0 0 54 54" fill="none" xmlns="http://www.w3.org/2000/svg">
<path d="M27 3.375V5.0625C27 5.99062 26.2406 6.75 25.3125 6.75H21.9375H16.875H11.8125H3.375C2.44687 6.75 1.6875 5.99062 1.6875 5.0625V3.375C1.6875 2.44687 2.44687 1.6875 3.375 1.6875H25.3125C26.2406 1.6875 27 2.44687 27 3.375Z" fill="#EAF9FF"/>
<path d="M16.875 32.0625V37.125H3.375C2.44687 37.125 1.6875 36.3656 1.6875 35.4375V33.75C1.6875 32.8219 2.44687 32.0625 3.375 32.0625H11.8125H16.875Z" fill="#EAF9FF"/>
<path d="M11.8125 32.0625H3.375V23.625L11.8125 32.0625Z" fill="#F75D25"/>
<path d="M25.3125 8.4375V13.5L14.3438 24.4688L11.8125 21.9375L25.3125 8.4375Z" fill="#F75D25"/>
<path d="M16.875 6.75L6.75 16.875L4.21875 14.3438L11.8125 6.75H16.875Z" fill="#F75D25"/>
<path d="M11.8125 6.75L4.21875 14.3438L3.375 13.5V6.75H11.8125Z" fill="#F75D25"/>
<path d="M25.3125 13.5V18.5625L16.875 27L14.3438 24.4688L25.3125 13.5Z" fill="#F75D25"/>
<path d="M21.9375 6.75L9.28125 19.4062L6.75 16.875L16.875 6.75H21.9375Z" fill="#F75D25"/>
<path d="M25.3125 23.625V28.6875H21.9375C21.9375 28.2234 21.7519 27.8016 21.4397 27.4978L25.3125 23.625Z" fill="#F75D25"/>
<path d="M25.3125 8.4375L11.8125 21.9375L9.28125 19.4062L21.9375 6.75H25.3125V8.4375Z" fill="#F75D25"/>
<path d="M18.5625 27C18.0984 27 17.6766 27.1856 17.3728 27.4978L16.875 27L25.3125 18.5625V23.625L21.4397 27.4978C21.1359 27.1856 20.7141 27 20.25 27H18.5625Z" fill="#F75D25"/>
<path d="M16.875 32.0625H11.8125L3.375 23.625V18.5625L16.875 32.0625Z" fill="#F75D25"/>
<path d="M16.875 27L17.3728 27.4978C17.0606 27.8016 16.875 28.2234 16.875 28.6875V32.0625L3.375 18.5625V13.5L4.21875 14.3438L6.75 16.875L9.28125 19.4062L11.8125 21.9375L14.3438 24.4688L16.875 27Z" fill="#F75D25"/>
<path d="M47.25 47.25V50.625H38.8125L44.7188 44.7188L47.25 47.25Z" fill="#FFEAA7"/>
<path d="M42.1875 42.1875L33.75 50.625H28.6875L39.6562 39.6562L42.1875 42.1875Z" fill="#FFEAA7"/>
<path d="M25.3125 28.6875H30.6788L29.8856 29.7844L29.5313 29.5312L21.9375 37.125V28.6875H25.3125Z" fill="#FFEAA7"/>
<path d="M44.7188 44.7188L38.8125 50.625H33.75L42.1875 42.1875L44.7188 44.7188Z" fill="#FFEAA7"/>
<path d="M39.6562 39.6562L28.6875 50.625H23.625L37.125 37.125L39.6562 39.6562Z" fill="#FFEAA7"/>
<path d="M37.125 37.125L23.625 50.625H21.9375V47.25L34.5938 34.5938L37.125 37.125Z" fill="#FFEAA7"/>
<path d="M34.5938 34.5937L21.9375 47.25V42.1875L28.6875 35.4375L28.8478 35.2772L28.8394 35.2687C28.9069 35.2266 28.9744 35.1844 29.0334 35.1253L32.2397 32.2397L34.5938 34.5937Z" fill="#FFEAA7"/>
<path d="M28.6875 35.4375L21.9375 42.1875V37.125L29.5313 29.5312L29.8856 29.7844L27.2362 33.4294C27.0844 33.6403 27 33.885 27 34.1466V34.2141C27 34.8891 27.5484 35.4375 28.2234 35.4375C28.3584 35.4375 28.4934 35.4122 28.8394 35.2687L28.8478 35.2772L28.6875 35.4375Z" fill="#FFEAA7"/>
<path d="M47.25 28.6875V37.125L38.8125 28.6875H43.875H47.25Z" fill="#FFEAA7"/>
<path d="M21.9375 47.25V50.625C21.9375 51.5531 21.1781 52.3125 20.25 52.3125H18.5625C17.6344 52.3125 16.875 51.5531 16.875 50.625V37.125V32.0625V28.6875C16.875 28.2234 17.0606 27.8016 17.3728 27.4978C17.6766 27.1856 18.0984 27 18.5625 27H20.25C20.7141 27 21.1359 27.1856 21.4397 27.4978C21.7519 27.8016 21.9375 28.2234 21.9375 28.6875V37.125V42.1875V47.25Z" fill="#EAF9FF"/>
<path d="M52.3125 28.6875V50.625C52.3125 51.5531 51.5531 52.3125 50.625 52.3125H48.9375C48.0094 52.3125 47.25 51.5531 47.25 50.625V47.25V42.1875V37.125V28.6875C47.25 27.7594 48.0094 27 48.9375 27H50.625C51.5531 27 52.3125 27.7594 52.3125 28.6875Z" fill="#EAF9FF"/>
<path d="M47.2501 42.1875V47.25L44.7188 44.7188L42.1876 42.1875L39.6563 39.6563L37.1251 37.125L34.5938 34.5938L32.2397 32.2397L34.906 29.8435L47.2501 42.1875Z" fill="#FCD770"/>
<path d="M36.1885 28.6875H38.8126L47.2501 37.125V42.1875L34.906 29.8434L36.1885 28.6875Z" fill="#FCD770"/>
<path d="M43.8666 21.7687L36.1884 28.6875L34.9059 29.8434L32.2397 32.2397L29.0334 35.1253C28.9744 35.1844 28.9069 35.2266 28.8394 35.2687C28.4934 35.4122 28.3584 35.4375 28.2234 35.4375C27.5484 35.4375 27 34.8891 27 34.2141V34.1466C27 33.885 27.0844 33.6403 27.2362 33.4294L29.8856 29.7844L30.6788 28.6875L39.4959 16.5712C40.1288 15.7022 41.1328 15.1875 42.2044 15.1875C44.0606 15.1875 45.5625 16.6894 45.5625 18.5456V18.7566C45.5625 19.71 45.1575 20.6128 44.4487 21.2456L43.8666 21.7687Z" fill="#57AEFF"/>
<path d="M50.625 26.1562H48.9375C47.8389 26.1562 46.9108 26.8642 46.5615 27.8438H44.7187V22.1442L45.0166 21.8767C45.8992 21.0819 46.4062 19.9446 46.4062 18.7557V18.5414C46.4062 16.227 44.523 14.3438 42.2077 14.3438C40.8687 14.3438 39.5997 14.9901 38.8133 16.0726L30.2527 27.8438H26.1562V7.4385C27.1358 7.08919 27.8437 6.16106 27.8437 5.0625V3.375C27.8437 1.97944 26.7081 0.84375 25.3125 0.84375H3.375C1.97944 0.84375 0.84375 1.97944 0.84375 3.375V5.0625C0.84375 6.16106 1.55166 7.08919 2.53125 7.4385V31.3748C1.55166 31.7233 0.84375 32.6514 0.84375 33.75V35.4375C0.84375 36.8331 1.97944 37.9688 3.375 37.9688H16.0312V50.625C16.0312 52.0206 17.1669 53.1562 18.5625 53.1562H20.25C21.3486 53.1562 22.2767 52.4483 22.626 51.4688H46.5623C46.9117 52.4483 47.8398 53.1562 48.9383 53.1562H50.6258C52.0214 53.1562 53.1571 52.0206 53.1571 50.625V28.6875C53.1562 27.2919 52.0206 26.1562 50.625 26.1562ZM9.77569 7.59375L4.21875 13.1507V7.59375H9.77569ZM24.4687 18.2132L16.875 25.8069L15.5368 24.4688L24.4687 15.5368V18.2132ZM24.4687 13.1507L14.3437 23.2757L13.0056 21.9375L24.4687 10.4743V13.1507ZM24.4687 8.08819L11.8125 20.7444L10.4743 19.4062L22.2868 7.59375H24.4687V8.08819ZM9.28125 18.2132L7.94306 16.875L17.2243 7.59375H19.9007L9.28125 18.2132ZM6.75 15.6819L5.41181 14.3438L12.1618 7.59375H14.8382L6.75 15.6819ZM12.1618 31.2188L4.21875 23.2757V20.5993L14.8382 31.2188H12.1618ZM9.77569 31.2188H4.21875V25.6618L9.77569 31.2188ZM4.21875 18.2132V15.5368L16.2852 27.6033C16.1266 27.9332 16.0312 28.2977 16.0312 28.6875V30.0257L4.21875 18.2132ZM24.4687 20.5993V23.2757L21.3342 26.4102C21.0043 26.2516 20.6398 26.1562 20.25 26.1562H18.9118L24.4687 20.5993ZM28.3382 29.5312L22.7812 35.0882V29.5312H28.3382ZM27.0312 35.899L22.7812 40.1507V37.4752L26.1647 34.0917C26.163 34.1339 26.1562 34.1736 26.1562 34.2183C26.1562 34.9127 26.5039 35.5252 27.0312 35.899ZM22.7812 42.5368L29.2874 36.0307L29.4486 35.8678L29.4469 35.8653C29.4975 35.8273 29.5523 35.7944 29.5996 35.7514L32.2093 33.4024L33.4007 34.5938L22.7812 45.2132V42.5368ZM22.7812 47.5993L34.5937 35.7868L35.9319 37.125L23.2757 49.7812H22.7812V47.5993ZM37.125 38.3181L38.4632 39.6562L28.3382 49.7812H25.6618L37.125 38.3181ZM39.6562 40.8493L40.9944 42.1875L33.4007 49.7812H30.7243L39.6562 40.8493ZM42.1875 43.3806L43.5257 44.7188L38.4632 49.7812H35.7868L42.1875 43.3806ZM44.7187 45.9118L46.4062 47.5993V49.7812H40.8493L44.7187 45.9118ZM33.4657 32.2726L34.8739 31.0053L46.4062 42.5368V45.2132L33.4657 32.2726ZM36.1302 29.8738L36.5107 29.5312H38.4632L46.4062 37.4743V40.1507L36.1302 29.8738ZM40.8493 29.5312H46.4062V35.0882L40.8493 29.5312ZM43.0312 27.8438H38.3856L43.0312 23.663V27.8438ZM40.1777 17.0648C40.6485 16.4177 41.407 16.0312 42.2077 16.0312C43.5923 16.0312 44.7187 17.1577 44.7187 18.5422V18.7566C44.7187 19.2898 44.5475 19.8062 44.2395 20.2314C43.6514 19.2375 42.5798 18.5625 41.3437 18.5625V20.25C42.1082 20.25 42.7477 20.7638 42.9545 21.4616L28.4707 34.4976C28.2471 34.6958 27.8429 34.5507 27.8437 34.1466C27.8437 34.0664 27.8682 33.9905 27.9155 33.9255L40.1777 17.0648ZM22.626 27.8438C22.5965 27.7611 22.5652 27.6809 22.5281 27.6033L24.4687 25.6618V27.8438H22.626ZM2.53125 3.375C2.53125 2.91009 2.90925 2.53125 3.375 2.53125H25.3125C25.7782 2.53125 26.1562 2.91009 26.1562 3.375V5.0625C26.1562 5.52741 25.7782 5.90625 25.3125 5.90625H3.375C2.90925 5.90625 2.53125 5.52741 2.53125 5.0625V3.375ZM3.375 36.2812C2.90925 36.2812 2.53125 35.9033 2.53125 35.4375V33.75C2.53125 33.2842 2.90925 32.9062 3.375 32.9062H16.0312V36.2812H3.375ZM21.0937 50.625C21.0937 51.0908 20.7157 51.4688 20.25 51.4688H18.5625C18.0967 51.4688 17.7187 51.0908 17.7187 50.625V28.6875C17.7187 28.2218 18.0967 27.8438 18.5625 27.8438H20.25C20.7157 27.8438 21.0937 28.2218 21.0937 28.6875V50.625ZM51.4687 50.625C51.4687 51.0908 51.0907 51.4688 50.625 51.4688H48.9375C48.4717 51.4688 48.0937 51.0908 48.0937 50.625V28.6875C48.0937 28.2218 48.4717 27.8438 48.9375 27.8438H50.625C51.0907 27.8438 51.4687 28.2218 51.4687 28.6875V50.625Z" fill="#393C47"/>
</svg>
