<svg width="56" height="56" viewBox="0 0 56 56" fill="none" xmlns="http://www.w3.org/2000/svg">
<path d="M49 12.25C51.8962 12.25 54.25 14.6037 54.25 17.5C54.25 18.9525 53.6638 20.265 52.71 21.21C51.765 22.1637 50.4525 22.75 49 22.75H29.75H24.5H22.75C25.6463 22.75 28 20.3962 28 17.5C28 16.0475 27.4137 14.735 26.46 13.79C25.515 12.8363 24.2025 12.25 22.75 12.25H49Z" fill="#E15624"/>
<path d="M4.375 17.5C3.64875 17.5 2.9925 17.2025 2.52 16.73C2.0475 16.2575 1.75 15.6012 1.75 14.875C1.75 13.4225 2.9225 12.25 4.375 12.25H22.75C24.2025 12.25 25.515 12.8363 26.46 13.79C27.4137 14.735 28 16.0475 28 17.5C28 20.3962 25.6462 22.75 22.75 22.75H9.625H4.375C3.64875 22.75 2.9925 22.4525 2.52 21.98C2.0475 21.5075 1.75 20.8512 1.75 20.125C1.75 18.6725 2.9225 17.5 4.375 17.5Z" fill="#F75D25"/>
<path d="M49 1.75C51.8962 1.75 54.25 4.10375 54.25 7C54.25 8.4525 53.6638 9.765 52.71 10.71C51.765 11.6637 50.4525 12.25 49 12.25H22.75C25.6463 12.25 28 9.89625 28 7C28 5.5475 27.4137 4.235 26.46 3.29C25.515 2.33625 24.2025 1.75 22.75 1.75H49Z" fill="#FF826E"/>
<path d="M54.25 38.3512V43.75C54.25 44.7125 53.9963 45.605 53.55 46.375C53.41 46.6025 53.2613 46.8212 53.095 47.0312C52.2725 46.34 49.875 44.17 49.875 42C49.875 40.3987 50.8375 38.815 51.6075 37.8087C52.0712 38.2375 52.6925 38.5 53.375 38.5C53.6813 38.5 53.9788 38.4475 54.25 38.3512Z" fill="#FF826E"/>
<path d="M51.6075 37.8087C51.5462 37.765 51.485 37.7038 51.4413 37.6425C51.0125 37.1788 50.75 36.5575 50.75 35.875C50.75 35.1925 51.0125 34.5712 51.4413 34.1075C51.485 34.0462 51.5462 33.985 51.6075 33.9413C52.0712 33.5125 52.6925 33.25 53.375 33.25C53.6813 33.25 53.9787 33.3025 54.25 33.3987V38.3513C53.9787 38.4475 53.6813 38.5 53.375 38.5C52.6925 38.5 52.0712 38.2375 51.6075 37.8087Z" fill="#FC6E51"/>
<path d="M54.25 28V33.3987C53.9788 33.3025 53.6813 33.25 53.375 33.25C52.6925 33.25 52.0712 33.5125 51.6075 33.9412C50.8375 32.935 49.875 31.3512 49.875 29.75C49.875 27.58 52.2725 25.41 53.095 24.7188C53.8213 25.62 54.25 26.7575 54.25 28Z" fill="#FF826E"/>
<path d="M53.55 46.375C53.9963 47.145 54.25 48.0462 54.25 49C54.25 50.4525 53.6638 51.765 52.71 52.71C51.765 53.6638 50.4525 54.25 49 54.25H22.75C25.6463 54.25 28 51.8962 28 49V48.6938C28.5512 48.895 29.1375 49 29.75 49H49C50.6537 49 52.1325 48.23 53.095 47.0312C53.2612 46.8212 53.41 46.6025 53.55 46.375Z" fill="#E15624"/>
<path d="M49 22.75C50.6538 22.75 52.1325 23.52 53.095 24.7188C52.2725 25.41 49.875 27.58 49.875 29.75C49.875 31.3512 50.8375 32.935 51.6075 33.9413C51.5463 33.985 51.485 34.0462 51.4413 34.1075C50.435 33.3375 48.8513 32.375 47.25 32.375C44.625 32.375 42 35.875 42 35.875C42 35.875 44.625 39.375 47.25 39.375C48.8513 39.375 50.435 38.4125 51.4413 37.6425C51.485 37.7038 51.5463 37.765 51.6075 37.8087C50.8375 38.815 49.875 40.3988 49.875 42C49.875 44.17 52.2725 46.34 53.095 47.0312C52.1325 48.23 50.6538 49 49 49H29.75C32.6463 49 35 46.6462 35 43.75V28C35 25.1037 32.6463 22.75 29.75 22.75H49Z" fill="#FFEAA7"/>
<path d="M51.4412 34.1075C51.0125 34.5712 50.75 35.1925 50.75 35.875C50.75 36.5575 51.0125 37.1788 51.4412 37.6425C50.435 38.4125 48.8512 39.375 47.25 39.375C44.625 39.375 42 35.875 42 35.875C42 35.875 44.625 32.375 47.25 32.375C48.8512 32.375 50.435 33.3375 51.4412 34.1075Z" fill="#FF826E"/>
<path d="M9.625 28C8.1725 28 7 26.8275 7 25.375C7 24.6488 7.2975 23.9925 7.77 23.52C8.2425 23.0475 8.89875 22.75 9.625 22.75H22.75H24.5H29.75C32.6462 22.75 35 25.1037 35 28V43.75C35 46.6462 32.6462 49 29.75 49C29.1375 49 28.5513 48.895 28 48.6938C27.2563 48.44 26.5825 48.0113 26.04 47.46C25.0863 46.515 24.5 45.2025 24.5 43.75V38.5V34.125C24.5 33.6438 24.1063 33.25 23.625 33.25H21.875H9.625C8.1725 33.25 7 32.0775 7 30.625C7 29.8987 7.2975 29.2425 7.77 28.77C8.2425 28.2975 8.89875 28 9.625 28Z" fill="#FCD770"/>
<path d="M4.375 49C3.64875 49 2.9925 48.7025 2.52 48.23C2.0475 47.7575 1.75 47.1012 1.75 46.375C1.75 44.9225 2.9225 43.75 4.375 43.75H24.5C24.5 45.2025 25.0863 46.515 26.04 47.46C26.5825 48.0113 27.2563 48.44 28 48.6938V49C28 51.8962 25.6462 54.25 22.75 54.25H4.375C3.64875 54.25 2.9925 53.9525 2.52 53.48C2.0475 53.0075 1.75 52.3512 1.75 51.625C1.75 50.1725 2.9225 49 4.375 49Z" fill="#F75D25"/>
<path d="M4.375 7C3.64875 7 2.9925 6.7025 2.52 6.23C2.0475 5.7575 1.75 5.10125 1.75 4.375C1.75 2.9225 2.9225 1.75 4.375 1.75H22.75C24.2025 1.75 25.515 2.33625 26.46 3.29C27.4137 4.235 28 5.5475 28 7C28 9.89625 25.6462 12.25 22.75 12.25H4.375C3.64875 12.25 2.9925 11.9525 2.52 11.48C2.0475 11.0075 1.75 10.3512 1.75 9.625C1.75 8.1725 2.9225 7 4.375 7Z" fill="#FC6E51"/>
<path d="M24.5 38.5V43.75H4.375C3.64875 43.75 2.9925 43.4525 2.52 42.98C2.0475 42.5075 1.75 41.8512 1.75 41.125C1.75 39.6725 2.9225 38.5 4.375 38.5H21.875H24.5Z" fill="#57AEFF"/>
<path d="M24.5 34.125V38.5H21.875H4.375C3.64875 38.5 2.9925 38.2025 2.52 37.73C2.0475 37.2575 1.75 36.6012 1.75 35.875C1.75 34.4225 2.9225 33.25 4.375 33.25H9.625H21.875H23.625C24.1063 33.25 24.5 33.6437 24.5 34.125Z" fill="#57AEFF"/>
<path d="M55.125 17.5C55.125 15.2705 53.9236 13.3219 52.1386 12.25C53.9236 11.1781 55.125 9.2295 55.125 7C55.125 3.6225 52.3775 0.875 49 0.875H22.75H4.375C2.44475 0.875 0.875 2.44475 0.875 4.375C0.875 5.41887 1.33438 6.35862 2.06238 7C1.33438 7.64138 0.875 8.58113 0.875 9.625C0.875 10.675 1.34925 11.6077 2.08425 12.25C1.34925 12.8923 0.875 13.825 0.875 14.875C0.875 15.9189 1.33438 16.8586 2.06238 17.5C1.33438 18.1414 0.875 19.0811 0.875 20.125C0.875 22.0553 2.44475 23.625 4.375 23.625H6.6115C6.3105 24.1421 6.125 24.7345 6.125 25.375C6.125 26.4189 6.58438 27.3586 7.31238 28C6.58438 28.6414 6.125 29.5811 6.125 30.625C6.125 31.2655 6.3105 31.8579 6.6115 32.375H4.375C2.44475 32.375 0.875 33.9448 0.875 35.875C0.875 36.925 1.34925 37.8577 2.08425 38.5C1.34925 39.1423 0.875 40.075 0.875 41.125C0.875 42.175 1.34925 43.1077 2.08425 43.75C1.34925 44.3923 0.875 45.325 0.875 46.375C0.875 47.425 1.34925 48.3577 2.08425 49C1.34925 49.6423 0.875 50.575 0.875 51.625C0.875 53.5552 2.44475 55.125 4.375 55.125H22.75H49C52.3775 55.125 55.125 52.3775 55.125 49C55.125 48.0891 54.9106 47.1958 54.5239 46.3794C54.9054 45.5814 55.125 44.6915 55.125 43.75V28C55.125 25.7705 53.9236 23.8219 52.1386 22.75C53.9236 21.6781 55.125 19.7295 55.125 17.5ZM49 2.625C51.4124 2.625 53.375 4.58763 53.375 7C53.375 9.41237 51.4124 11.375 49 11.375H27.0287C28.1663 10.262 28.875 8.71325 28.875 7C28.875 5.28675 28.1663 3.738 27.0287 2.625H49ZM2.625 9.625C2.625 8.65987 3.40987 7.875 4.375 7.875H23.625V6.125H4.375C3.40987 6.125 2.625 5.34013 2.625 4.375C2.625 3.40987 3.40987 2.625 4.375 2.625H22.75C25.1624 2.625 27.125 4.58763 27.125 7C27.125 9.41237 25.1624 11.375 22.75 11.375H4.375C3.40987 11.375 2.625 10.5901 2.625 9.625ZM2.625 20.125C2.625 19.1599 3.40987 18.375 4.375 18.375H23.625V16.625H4.375C3.40987 16.625 2.625 15.8401 2.625 14.875C2.625 13.9099 3.40987 13.125 4.375 13.125H22.75C25.1624 13.125 27.125 15.0876 27.125 17.5C27.125 19.9124 25.1624 21.875 22.75 21.875H9.625H4.375C3.40987 21.875 2.625 21.0901 2.625 20.125ZM7.875 30.625C7.875 29.6599 8.65987 28.875 9.625 28.875H27.125C28.0901 28.875 28.875 29.6599 28.875 30.625V44.625H30.625V30.625C30.625 28.6947 29.0553 27.125 27.125 27.125H9.625C8.65987 27.125 7.875 26.3401 7.875 25.375C7.875 24.4099 8.65987 23.625 9.625 23.625H22.75H24.5H29.75C32.1624 23.625 34.125 25.5876 34.125 28V43.75C34.125 46.1624 32.1624 48.125 29.75 48.125C27.3376 48.125 25.375 46.1624 25.375 43.75V34.125C25.375 33.1599 24.5901 32.375 23.625 32.375H21.875H9.625C8.65987 32.375 7.875 31.5901 7.875 30.625ZM2.625 41.125C2.625 40.1599 3.40987 39.375 4.375 39.375H21.875V37.625H4.375C3.40987 37.625 2.625 36.8401 2.625 35.875C2.625 34.9099 3.40987 34.125 4.375 34.125H9.625H21.875H23.625V42.875H4.375C3.40987 42.875 2.625 42.0901 2.625 41.125ZM4.375 53.375C3.40987 53.375 2.625 52.5901 2.625 51.625C2.625 50.6599 3.40987 49.875 4.375 49.875H23.625V48.125H4.375C3.40987 48.125 2.625 47.3401 2.625 46.375C2.625 45.4099 3.40987 44.625 4.375 44.625H23.695C23.9899 46.6734 25.2989 48.3936 27.0987 49.2625C26.9596 51.5506 25.0723 53.375 22.75 53.375H4.375ZM49 53.375H27.0287C27.9869 52.4379 28.6352 51.1901 28.8172 49.7962C29.1217 49.8435 29.4324 49.875 29.75 49.875H49C50.6634 49.875 52.1727 49.2065 53.2779 48.1259C53.3365 48.4129 53.375 48.7043 53.375 49C53.375 51.4124 51.4124 53.375 49 53.375ZM52.9077 26.0724C53.1974 26.6569 53.375 27.3053 53.375 28V32.375C52.8211 32.375 52.304 32.5159 51.8376 32.746C51.135 31.6584 50.75 30.6136 50.75 29.75C50.75 28.5696 51.7668 27.1784 52.9077 26.0724ZM51.625 35.875C51.625 34.9099 52.4099 34.125 53.375 34.125V37.625C52.4099 37.625 51.625 36.8401 51.625 35.875ZM50.246 37.4124C49.1584 38.115 48.1136 38.5 47.25 38.5C45.7555 38.5 44.0387 36.9084 43.1305 35.875C44.0387 34.8416 45.7555 33.25 47.25 33.25C48.1136 33.25 49.1584 33.635 50.246 34.3376C50.0159 34.804 49.875 35.3211 49.875 35.875C49.875 36.4289 50.0159 36.946 50.246 37.4124ZM51.8376 39.004C52.304 39.2341 52.8211 39.375 53.375 39.375V43.75C53.375 44.4448 53.1974 45.0931 52.9077 45.6776C51.7668 44.5707 50.75 43.1804 50.75 42C50.75 41.1364 51.135 40.0916 51.8376 39.004ZM51.821 24.6846C50.6371 25.802 49 27.7165 49 29.75C49 30.5147 49.189 31.2646 49.4664 31.9664C48.7646 31.689 48.0148 31.5 47.25 31.5C44.2733 31.5 41.5957 34.9563 41.3 35.35L40.9062 35.875L41.3 36.4C41.5949 36.7937 44.2733 40.25 47.25 40.25C48.0148 40.25 48.7646 40.061 49.4664 39.7836C49.189 40.4854 49 41.2352 49 42C49 44.0335 50.6371 45.9471 51.821 47.0662C51.0571 47.7173 50.0798 48.125 49 48.125H34.0287C35.1662 47.012 35.875 45.4632 35.875 43.75V28C35.875 26.2868 35.1662 24.738 34.0287 23.625H49C50.0798 23.625 51.0571 24.0328 51.821 24.6846ZM29.75 21.875H27.0287C28.1663 20.762 28.875 19.2132 28.875 17.5C28.875 15.7867 28.1663 14.238 27.0287 13.125H49C51.4124 13.125 53.375 15.0876 53.375 17.5C53.375 19.9124 51.4124 21.875 49 21.875H29.75Z" fill="#393C47"/>
<path d="M49 36.75C49.4832 36.75 49.875 36.3582 49.875 35.875C49.875 35.3918 49.4832 35 49 35C48.5168 35 48.125 35.3918 48.125 35.875C48.125 36.3582 48.5168 36.75 49 36.75Z" fill="#393C47"/>
</svg>
