<svg width="51" height="52" viewBox="0 0 51 52" fill="none" xmlns="http://www.w3.org/2000/svg">
<g clip-path="url(#clip0)">
<path d="M46.9254 49.3849C46.9272 49.3776 46.9288 49.3702 46.9306 49.3627C46.9393 49.3248 46.9476 49.2867 46.9549 49.2483C46.9576 49.2344 46.9599 49.2203 46.9624 49.2064C46.9683 49.1731 46.9741 49.1398 46.979 49.1062C46.982 49.0858 46.9843 49.0651 46.9869 49.0444C46.9904 49.0163 46.994 48.9881 46.9968 48.9597C46.9996 48.931 47.0014 48.9021 47.0034 48.8733C47.0049 48.8518 47.0069 48.8305 47.0079 48.809C47.0104 48.7579 47.0118 48.7064 47.0118 48.6547V43.3486C47.0118 42.0341 46.6616 40.6916 46.0542 39.4486C45.9438 39.2226 45.8248 38.9998 45.6979 38.7812C45.5711 38.5626 45.4361 38.3479 45.2939 38.1382C45.1516 37.9283 45.002 37.7233 44.8455 37.5238C44.7672 37.4241 44.6872 37.3258 44.6057 37.229C43.4634 35.8733 42 34.8096 40.4065 34.2997L38.8289 33.7949L36.4943 33.0478L36.4584 33.0044C36.4583 33.0042 36.4581 33.0041 36.4579 33.0039C36.4431 32.9861 36.4275 32.9687 36.4109 32.9521L34.5509 31.0921C34.2555 30.7968 33.8691 30.6456 33.4801 30.6397C33.459 30.4195 33.4435 30.1888 33.4353 29.9478C33.4331 29.8814 33.4314 29.8132 33.4301 29.7443C35.4576 27.4306 36.7224 24.298 37.2068 21.1497C37.3294 21.028 37.4085 20.8665 37.4254 20.6903L37.8177 16.5794C38.0606 16.4557 38.2273 16.2038 38.2273 15.9125V4.41418C38.2273 4.13268 38.0694 3.87493 37.8185 3.74706C30.1051 -0.183183 20.8949 -0.183183 13.1811 3.74706C12.9303 3.87483 12.7723 4.13258 12.7723 4.41418V15.9128C12.7723 16.2041 12.939 16.456 13.1819 16.5797L13.5742 20.6906C13.5911 20.8668 13.6702 21.0283 13.7928 21.15C14.2769 24.2964 15.5404 27.4271 17.5659 29.7404C17.5582 30.061 17.5406 30.3591 17.5121 30.6398C17.1257 30.6475 16.7423 30.7989 16.4487 31.0923L14.5887 32.9523C14.5721 32.969 14.5565 32.9863 14.5417 33.0041C14.5416 33.0042 14.5414 33.0044 14.5412 33.0046L14.5053 33.048L10.593 34.2999C6.95085 35.4652 3.98779 39.5245 3.98779 43.3487V48.6548C3.98779 48.7066 3.98919 48.758 3.99169 48.8091C3.99278 48.8306 3.99478 48.8519 3.99618 48.8734C3.99817 48.9023 3.99997 48.9312 4.00277 48.9598C4.00556 48.9883 4.00925 49.0163 4.01275 49.0446C4.01534 49.0652 4.01764 49.0859 4.02063 49.1063C4.02553 49.1399 4.03122 49.1732 4.03721 49.2065C4.0397 49.2204 4.042 49.2345 4.04469 49.2484C4.05208 49.2868 4.06036 49.3249 4.06905 49.3628C4.07075 49.3702 4.07244 49.3776 4.07424 49.385C4.08462 49.4287 4.096 49.4718 4.10818 49.5146C4.10818 49.5148 4.10828 49.515 4.10838 49.5152C4.48362 50.832 5.69667 51.7994 7.13223 51.7994H16.7145C16.715 51.7994 16.7155 51.7995 16.7161 51.7995C16.7166 51.7995 16.7171 51.7994 16.7175 51.7994H23.9023C23.9026 51.7994 23.9029 51.7994 23.9032 51.7994C23.9034 51.7994 23.9035 51.7994 23.9037 51.7994H27.0959C27.096 51.7994 27.0962 51.7994 27.0964 51.7994C27.0967 51.7994 27.097 51.7994 27.0973 51.7994H34.2822C34.2827 51.7994 34.2831 51.7995 34.2836 51.7995C34.2841 51.7995 34.2846 51.7994 34.2852 51.7994H43.8674C45.3029 51.7994 46.516 50.8321 46.8912 49.5152C46.8913 49.515 46.8913 49.5148 46.8914 49.5146C46.9036 49.4717 46.915 49.4285 46.9254 49.3849ZM27.8077 50.3019L27.3635 41.7885C27.4656 41.6913 27.554 41.5804 27.6266 41.4587L28.3026 42.1347C28.5942 42.4263 28.9872 42.588 29.3961 42.588C29.4365 42.588 29.4771 42.5864 29.5177 42.5832C29.9694 42.5478 30.3815 42.3173 30.648 41.9507L33.3462 38.2406L28.9582 50.3019H27.8077ZM22.0416 50.3019L17.6536 38.2406L20.3518 41.9507C20.6183 42.3173 21.0304 42.5477 21.4821 42.5832C21.5227 42.5864 21.5633 42.588 21.6037 42.588C22.0126 42.588 22.4056 42.4264 22.6972 42.1347L23.3732 41.4587C23.4458 41.5804 23.5342 41.6914 23.6363 41.7885L23.1921 50.3019H22.0416ZM14.2662 39.7966C14.2441 39.5734 14.123 39.3719 13.9365 39.2475L12.2963 38.154C12.2912 38.1506 12.2775 38.1416 12.2745 38.1192C12.2715 38.0968 12.2823 38.0845 12.2864 38.0798C12.2906 38.0751 12.2946 38.0703 12.2986 38.0654L14.8622 34.966L20.4377 50.2736H17.1122L12.1928 42.4251C12.1794 42.4036 12.1649 42.3829 12.1493 42.363C12.1339 42.3431 12.1357 42.3148 12.1534 42.297L14.0507 40.3998C14.2092 40.2411 14.2884 40.0198 14.2662 39.7966ZM15.0275 20.1553L14.6941 16.6615H15.7816C15.5933 17.7215 15.4089 19.2528 15.292 20.3015L15.0275 20.1553ZM15.5545 22.1581C15.6671 22.2204 15.792 22.2517 15.9169 22.2517C16.0362 22.2517 16.1554 22.2232 16.2644 22.1662C16.4873 22.0494 16.6366 21.8283 16.6618 21.578C16.809 20.114 17.0853 17.7715 17.3013 16.6617H33.6984C33.9145 17.7715 34.1907 20.1141 34.338 21.578C34.3631 21.8283 34.5124 22.0494 34.7354 22.1662C34.8443 22.2232 34.9636 22.2517 35.0828 22.2517C35.2077 22.2517 35.3326 22.2204 35.4452 22.1581L35.4995 22.128C34.3594 27.2246 30.9895 31.9344 25.4998 31.9344C20.0101 31.9344 16.6402 27.2246 15.5001 22.128L15.5545 22.1581ZM35.9724 20.1553L35.7079 20.3015C35.5911 19.2528 35.4066 17.7215 35.2183 16.6615H36.3058L35.9724 20.1553ZM18.9657 31.1015C20.7225 32.5431 22.903 33.4318 25.5 33.4318C28.0928 33.4318 30.2705 32.5459 32.0258 31.1084C32.0289 31.1341 32.0316 31.1606 32.0351 31.186C32.0427 31.2424 32.0571 31.2962 32.0762 31.3475L25.5 37.2661L18.9164 31.3408C18.9337 31.2927 18.9469 31.2423 18.9543 31.1896C18.9583 31.1604 18.9618 31.1308 18.9657 31.1015ZM24.7014 40.7189C24.6758 40.7189 24.6515 40.6946 24.6515 40.669V40.1804L25.5 39.3319L26.3485 40.1804V40.669C26.3485 40.6946 26.3242 40.7189 26.2986 40.7189H24.7014ZM25.1134 42.2162H25.8864L26.3084 50.3019H24.6915L25.1134 42.2162ZM36.9493 40.3998L38.8466 42.297C38.8643 42.3148 38.8661 42.3431 38.8507 42.363C38.8352 42.3829 38.8207 42.4036 38.8072 42.4251L33.8879 50.2736H30.5623L36.1378 34.966L38.7014 38.0654C38.7054 38.0702 38.7095 38.0751 38.7136 38.0798C38.7177 38.0845 38.7284 38.0968 38.7255 38.1192C38.7225 38.1416 38.7088 38.1506 38.7037 38.154L37.0635 39.2475C36.8769 39.3719 36.7559 39.5734 36.7338 39.7966C36.7116 40.0198 36.7907 40.2411 36.9493 40.3998ZM45.5146 43.3487V48.6548C45.5146 48.7083 45.5116 48.7612 45.5065 48.8134C45.5041 48.838 45.4998 48.8622 45.4963 48.8865C45.4926 48.9127 45.4892 48.9388 45.4843 48.9646C45.4779 48.9977 45.4697 49.0303 45.4614 49.0627C45.4576 49.0776 45.4541 49.0927 45.4499 49.1073C45.4383 49.1471 45.4253 49.1862 45.4109 49.2246C45.409 49.2298 45.4071 49.235 45.4051 49.2403C45.1958 49.7803 44.7052 50.1873 44.1005 50.2736H35.655L40.0591 43.2471C40.5083 42.6345 40.4455 41.7785 39.9053 41.2383L38.6538 39.9868L39.5341 39.3999C39.9041 39.1532 40.1503 38.759 40.2094 38.3181C40.268 37.881 40.1371 37.4395 39.8501 37.105L38.2628 35.186L39.9502 35.7259C42.9665 36.691 45.5146 40.1817 45.5146 43.3487ZM34.8999 33.5588L29.4371 41.07C29.4334 41.0751 29.4236 41.0886 29.4006 41.0904C29.3787 41.0925 29.3659 41.0804 29.3614 41.076L26.5873 38.3018L33.4234 32.1493C33.4431 32.1314 33.4733 32.1323 33.4921 32.1511L34.8999 33.5588ZM14.2699 4.87746C21.3363 1.43545 29.6638 1.43555 36.7301 4.87746V15.1641H14.2699V4.87746ZM17.5078 32.1512C17.5265 32.1324 17.5568 32.1316 17.5764 32.1494L24.4125 38.3019L21.6384 41.0761C21.6341 41.0805 21.6217 41.0926 21.5992 41.0905C21.5763 41.0886 21.5664 41.0752 21.5627 41.0701L16.0999 33.5588L17.5078 32.1512ZM5.48544 43.3487C5.48544 40.1817 8.03353 36.691 11.0497 35.7259L12.7371 35.186L11.1497 37.1051C10.8627 37.4396 10.7319 37.881 10.7904 38.3182C10.8495 38.7591 11.0957 39.1533 11.4658 39.4L12.346 39.9869L11.0944 41.2384C10.5543 41.7786 10.4915 42.6346 10.9407 43.2472L15.3448 50.2737H6.89944C6.29471 50.1874 5.80408 49.7804 5.59485 49.2404C5.59285 49.2352 5.59105 49.23 5.58906 49.2247C5.57458 49.1862 5.56161 49.1472 5.55003 49.1074C5.54583 49.0928 5.54234 49.0777 5.53855 49.0628C5.53016 49.0304 5.52198 48.9978 5.51559 48.9647C5.5107 48.939 5.5073 48.9128 5.50361 48.8866C5.50012 48.8623 5.49582 48.8381 5.49343 48.8135C5.48844 48.7613 5.48534 48.7084 5.48534 48.6549V43.3487H5.48544Z" fill="#57AEFF"/>
<path d="M28.6944 7.97688H26.2487V5.53121C26.2487 5.11774 25.9135 4.78253 25.5 4.78253C25.0866 4.78253 24.7514 5.11774 24.7514 5.53121V7.97688H22.3057C21.8922 7.97688 21.557 8.31208 21.557 8.72555C21.557 9.13902 21.8922 9.47422 22.3057 9.47422H24.7514V11.9199C24.7514 12.3334 25.0866 12.6686 25.5 12.6686C25.9135 12.6686 26.2487 12.3334 26.2487 11.9199V9.47422H28.6944C29.1078 9.47422 29.4431 9.13902 29.4431 8.72555C29.4431 8.31208 29.1078 7.97688 28.6944 7.97688Z" fill="#57AEFF"/>
</g>
<defs>
<clipPath id="clip0">
<rect width="51" height="51" fill="white" transform="translate(0 0.799377)"/>
</clipPath>
</defs>
</svg>
