<svg width="49" height="59" viewBox="0 0 49 59" fill="none" xmlns="http://www.w3.org/2000/svg">
<path d="M48.9996 47.2737C48.9686 47.6931 48.9371 48.113 48.9062 48.5324C48.7362 50.8233 48.335 53.0779 47.8347 55.317C47.7983 55.4795 47.7103 55.5392 47.5614 55.5844C45.1172 56.3278 42.6341 56.9176 40.1175 57.3515C38.0446 57.7088 35.9628 58.0278 33.8749 58.2797C32.1579 58.487 30.4278 58.6186 28.6993 58.6967C26.7624 58.7841 24.8209 58.8065 22.8815 58.7975C20.3739 58.7861 17.8752 58.5898 15.3826 58.316C11.1674 57.8529 7.00524 57.108 2.90699 56.0192C2.38528 55.8806 1.86956 55.719 1.34785 55.5784C1.20343 55.5397 1.12597 55.4746 1.09249 55.324C0.607759 53.1484 0.229468 50.9574 0.0685563 48.7322C-0.023393 47.4581 -0.0373853 46.1869 0.117529 44.9143C0.644739 40.585 3.37873 37.3882 7.6199 36.2528C9.80269 35.6684 12.0125 35.1834 14.2083 34.6472C14.3817 34.6049 14.5601 34.5378 14.707 34.4394C16.1652 33.4595 16.9852 32.089 17.2106 30.3577C17.2381 30.1465 17.1881 29.984 17.0477 29.8165C14.9554 27.3135 13.6671 24.4491 13.1828 21.231C12.876 19.1911 12.9385 17.1567 13.2758 15.1232C13.3497 14.679 13.3163 14.2163 13.3213 13.7616C13.3253 13.4148 13.4102 13.0227 13.2773 12.7335C13.1489 12.4537 12.7935 12.2718 12.5277 12.0596C11.5212 11.2571 10.8431 10.2399 10.5023 9.00352C9.7967 6.44532 11.069 3.49653 13.3547 2.38837C14.0444 2.05393 14.773 1.87305 15.541 1.84572C15.6535 1.84174 15.7714 1.81243 15.8753 1.7682C18.9721 0.45133 22.2044 -0.130576 25.566 0.0244662C28.1071 0.142239 30.5583 0.68787 32.9005 1.67776C33.3142 1.85268 33.741 1.85367 34.1608 1.93914C36.6044 2.43707 38.4429 4.44417 38.7118 6.92088C38.9182 8.82015 38.2605 10.3959 36.9008 11.7073C36.5839 12.0129 36.2466 12.2972 35.9318 12.6038C35.8593 12.6744 35.8024 12.7981 35.8004 12.898C35.7889 13.5355 35.7659 14.1746 35.8034 14.8102C35.8359 15.3618 35.9558 15.9074 36.0138 16.458C36.3141 19.3124 35.9648 22.0887 34.9653 24.7811C34.2887 26.6038 33.3512 28.282 32.0994 29.7792C31.953 29.9541 31.8775 30.1236 31.8975 30.3601C32.0519 32.1794 32.887 33.5981 34.4216 34.595C34.6345 34.7336 34.9169 34.7754 35.1732 34.8375C37.2566 35.3444 39.3604 35.7807 41.4223 36.3626C44.9568 37.3599 47.332 39.6224 48.4929 43.1079C48.7822 43.9771 48.9176 44.876 48.9586 45.7899C48.9636 45.9037 48.9866 46.0165 49.0011 46.1298C48.9996 46.5119 48.9996 46.8926 48.9996 47.2737ZM21.6102 56.9594C21.8985 56.9594 22.1559 56.9549 22.4132 56.9599C27.1511 57.0598 31.8655 56.7914 36.5525 56.0773C39.7292 55.5933 42.8645 54.9225 45.9588 54.0593C46.1162 54.0156 46.1817 53.943 46.2176 53.781C46.6779 51.7093 47.0212 49.6217 47.1346 47.5008C47.1956 46.3638 47.1601 45.2268 46.8738 44.1207C46.0792 41.0521 43.9809 39.1976 41.045 38.2971C39.0156 37.6745 36.9123 37.2913 34.8399 36.8108C34.736 36.7865 34.587 36.8207 34.4986 36.8834C30.2639 39.8729 25.9458 42.7462 21.8186 45.8853C21.6727 45.9961 21.6062 46.1009 21.6067 46.2903C21.6132 49.7434 21.6117 53.1966 21.6117 56.6498C21.6102 56.7318 21.6102 56.8138 21.6102 56.9594ZM19.7077 56.7383C19.7077 56.6021 19.7077 56.4967 19.7077 56.3914C19.7077 52.7071 19.7092 49.0224 19.7037 45.3382C19.7032 45.1612 19.7582 45.0544 19.9026 44.952C20.8091 44.3065 21.7091 43.6511 22.6106 42.9986C22.6821 42.9469 22.7511 42.8927 22.8345 42.8296C22.7466 42.7645 22.6811 42.7144 22.6136 42.6666C19.9146 40.7579 17.2141 38.8507 14.5186 36.9365C14.3402 36.8098 14.1763 36.778 13.9649 36.8123C12.1399 37.109 10.3579 37.5845 8.57737 38.0675C7.53944 38.3488 6.51051 38.6504 5.60451 39.2517C3.0769 40.9304 1.83858 43.3141 1.78261 46.3077C1.73564 48.7968 2.1619 51.2337 2.69411 53.6558C2.73909 53.861 2.84353 53.9326 3.02843 53.9853C8.09314 55.4323 13.2688 56.2428 18.5129 56.6602C18.9002 56.69 19.2885 56.7109 19.7077 56.7383ZM25.3136 14.2352C26.5979 14.3202 27.8483 14.4027 29.1245 14.4872C29.1245 13.792 29.1245 13.0838 29.1245 12.3648C29.7702 12.3648 30.3884 12.3648 31.0345 12.3648C31.0345 13.1902 31.0345 13.9977 31.0345 14.8097C31.9615 15.0015 32.8625 15.1883 33.795 15.3811C33.795 15.2609 33.795 15.1719 33.795 15.083C33.795 14.1309 33.8005 13.1787 33.7905 12.2266C33.7885 12.0318 33.8544 11.9101 34.0004 11.7878C34.6 11.2884 35.2457 10.8278 35.7714 10.2588C36.8973 9.0393 37.1231 7.61708 36.461 6.0925C35.8099 4.59375 34.634 3.85183 32.9949 3.825C32.899 3.82351 32.7965 3.80313 32.7096 3.76437C30.9455 2.97425 29.1021 2.45545 27.1856 2.21047C23.684 1.76224 20.2819 2.16823 16.9897 3.44584C16.4745 3.64561 15.9798 3.91792 15.3966 3.85183C15.3886 3.85084 15.3801 3.85382 15.3721 3.85481C13.7505 4.10576 12.7321 5.06186 12.2808 6.58943C11.8386 8.08668 12.2274 9.40256 13.3687 10.4799C13.8515 10.9356 14.3562 11.3694 14.8579 11.8047C14.9878 11.9175 15.0428 12.0343 15.0413 12.2082C15.0328 13.1688 15.0373 14.1294 15.0378 15.0894C15.0378 15.1764 15.0453 15.2634 15.0483 15.3334C15.9463 15.1545 16.8218 14.9796 17.7208 14.8007C17.7208 13.9773 17.7208 13.1708 17.7208 12.3618C18.3615 12.3618 18.9736 12.3618 19.6188 12.3618C19.6188 13.0888 19.6188 13.8019 19.6188 14.4792C20.8986 14.3833 22.1474 14.2899 23.4272 14.194C23.4272 13.5902 23.4272 12.975 23.4272 12.3628C24.0698 12.3628 24.6825 12.3628 25.3141 12.3628C25.3137 12.9879 25.3136 13.5981 25.3136 14.2352ZM24.4866 16.2299C21.3119 16.2354 18.1776 16.5882 15.0853 17.3067C14.8949 17.351 14.8229 17.43 14.8264 17.6183C14.8414 18.4204 14.8064 19.2259 14.8664 20.0245C15.0998 23.1387 16.1697 25.932 18.1776 28.3535C19.234 29.6277 20.4054 30.7691 21.899 31.5364C22.6456 31.92 23.4327 32.171 24.2777 32.2172C25.4016 32.2788 26.4315 31.9677 27.403 31.4315C28.6973 30.7174 29.7522 29.7246 30.6762 28.5921C33.2798 25.4008 34.3712 21.7245 34.1943 17.6471C34.1868 17.4717 34.1603 17.3554 33.9389 17.3053C30.8276 16.5976 27.6778 16.2364 24.4866 16.2299ZM16.1912 35.8209C16.2746 35.8835 16.3326 35.9302 16.3931 35.9725C19.0091 37.7972 21.6272 39.6195 24.2387 41.4502C24.4141 41.5734 24.5236 41.562 24.6915 41.4442C27.2976 39.6195 29.9081 37.8017 32.5177 35.9819C32.5846 35.9352 32.6491 35.884 32.7326 35.8214C31.4373 34.7818 30.5997 33.4625 30.1705 31.8574C26.3551 35.0035 22.5567 34.9995 18.7508 31.8569C18.322 33.4665 17.377 34.7058 16.1912 35.8209Z" fill="#57AEFF"/>
<path d="M24.4728 47.4488C24.4728 46.8292 24.4728 46.2199 24.4728 45.5943C25.0999 45.5943 25.7181 45.5943 26.3507 45.5943C26.3507 46.2095 26.3507 46.8187 26.3507 47.4488C25.7371 47.4488 25.1189 47.4488 24.4728 47.4488Z" fill="#57AEFF"/>
<path d="M24.4763 49.3715C25.104 49.3715 25.7166 49.3715 26.3473 49.3715C26.3473 49.9907 26.3473 50.6059 26.3473 51.2365C25.7266 51.2365 25.108 51.2365 24.4763 51.2365C24.4763 50.6188 24.4763 50.0091 24.4763 49.3715Z" fill="#57AEFF"/>
<path d="M26.3478 54.9357C25.7171 54.9357 25.111 54.9357 24.4838 54.9357C24.4838 54.3155 24.4838 53.7008 24.4838 53.0672C25.0945 53.0672 25.7126 53.0672 26.3478 53.0672C26.3478 53.6839 26.3478 54.2981 26.3478 54.9357Z" fill="#57AEFF"/>
</svg>
