<svg width="49" height="52" viewBox="0 0 49 52" fill="none" xmlns="http://www.w3.org/2000/svg">
<g clip-path="url(#clip0)">
<path d="M0 47.8963C0.0615129 47.3988 0.0846459 46.8935 0.189796 46.4053C1.09146 42.2057 3.20288 38.7501 6.62078 36.0695C9.14018 34.0935 11.9987 32.9627 15.1527 32.5136C15.7037 32.435 16.2699 32.448 16.8293 32.4381C17.1858 32.4319 17.4581 32.5942 17.6595 32.8976C18.0574 33.4987 18.4307 34.1222 18.8871 34.6779C21.3849 37.7203 26.1561 38.1335 29.1844 35.5949C29.8132 35.0677 30.3322 34.4542 30.7507 33.7537C30.8889 33.5226 31.0356 33.2963 31.1734 33.0652C31.4736 32.5609 31.9231 32.3751 32.5014 32.4111C33.8694 32.4964 35.2159 32.7014 36.5329 33.0829C42.4087 34.7836 47.0773 39.5859 48.5342 45.4733C48.7455 46.3273 48.817 47.2156 48.9543 48.0878C48.9664 48.1633 48.9853 48.2377 49.0005 48.3126C49.0005 48.972 49.0005 49.6308 49.0005 50.2902C48.999 50.3068 48.9958 50.324 48.9963 50.3407C49.0053 50.9188 48.8007 51.4065 48.3696 51.7994C32.4567 51.7994 16.5443 51.7994 0.631427 51.7994C0.421127 51.5912 0.210826 51.3831 0.000525751 51.1749C0 50.082 0 48.9892 0 47.8963ZM2.34643 49.4445C17.0911 49.4445 31.8305 49.4445 46.5921 49.4445C46.5921 49.3441 46.5931 49.2587 46.5921 49.1739C46.5716 47.6897 46.3492 46.2284 45.8676 44.8301C44.1526 39.8513 40.7058 36.6748 35.5718 35.3128C34.8731 35.1276 34.1454 35.0485 33.433 34.9106C33.1418 34.8544 32.9483 34.9387 32.8232 35.2134C32.7301 35.418 32.6018 35.6064 32.4872 35.801C30.3511 39.4324 28.2186 43.0654 26.073 46.6911C25.8223 47.1147 25.5278 47.5221 25.1992 47.889C24.7897 48.3459 24.1845 48.3335 23.7676 47.8843C23.5147 47.6117 23.2824 47.3109 23.0894 46.9939C21.9585 45.1397 20.8276 43.285 19.7246 41.4146C18.5506 39.4246 17.4076 37.4169 16.2515 35.4164C15.9471 34.8892 15.8614 34.8356 15.2631 34.9324C14.6937 35.0245 14.1211 35.1146 13.5628 35.2556C9.01926 36.4021 5.70598 39.0489 3.70234 43.2579C2.77281 45.2079 2.40216 47.2874 2.34643 49.4445ZM24.4658 44.6125C25.6004 42.7708 26.6877 41.0077 27.6482 39.1675C26.613 39.5079 25.572 39.6374 24.5037 39.6343C23.4369 39.6312 22.3896 39.5006 21.3592 39.2128C21.3423 39.2383 21.3255 39.2643 21.3092 39.2898C22.3481 41.0415 23.387 42.7937 24.4658 44.6125Z" fill="#57AEFF"/>
<path d="M24.9731 0.799377C25.4495 0.859745 25.9268 0.915949 26.4027 0.98152C29.1097 1.35569 31.3221 2.66868 33.2143 4.55308C35.2316 6.56186 36.3541 9.00673 36.6932 11.8102C36.7631 12.3857 36.9329 12.8983 37.2894 13.3875C38.4303 14.954 38.0869 16.9398 36.506 18.1654C36.2584 18.3574 35.9945 18.5307 35.7247 18.6905C35.5754 18.779 35.5355 18.881 35.5344 19.0459C35.5297 20.0342 35.5423 21.024 35.4929 22.0102C35.3846 24.1673 34.6254 26.1016 33.3242 27.8216C31.8331 29.7924 29.8931 31.1647 27.5309 31.9448C26.4657 32.2966 25.3606 32.2778 24.2565 32.3012C21.1409 32.3673 18.6736 31.0096 16.5643 28.8816C15.0901 27.3948 14.0927 25.6296 13.6632 23.5854C13.5165 22.8871 13.5118 22.1564 13.4744 21.4393C13.4329 20.6431 13.4229 19.8448 13.4108 19.047C13.4082 18.8726 13.353 18.7712 13.2058 18.6686C12.8062 18.3902 12.3856 18.1253 12.0428 17.786C10.7316 16.4871 10.6412 14.6173 11.8068 13.1919C12.1259 12.801 12.1974 12.3493 12.2505 11.8841C12.466 9.98614 13.0391 8.20583 14.0985 6.60453C16.2168 3.4035 19.1625 1.44208 23.0121 0.865469C23.1577 0.843612 23.3034 0.821235 23.449 0.799377C23.9569 0.799377 24.4647 0.799377 24.9731 0.799377ZM15.7877 19.0293C15.8514 20.1877 15.8913 21.3222 15.9791 22.4536C16.2162 25.5026 18.2914 28.5481 22.0268 29.6388C22.9979 29.9225 24 29.8985 24.9989 29.8907C25.9994 29.8829 26.9657 29.719 27.8837 29.3094C30.3857 28.1926 32.0655 26.3644 32.7748 23.7192C33.0871 22.5545 33.0613 21.3482 33.1139 20.1544C33.1302 19.7849 33.1165 19.4139 33.1165 19.0293C27.3669 19.0293 21.6078 19.0293 15.7877 19.0293ZM29.4799 4.51197C29.463 5.0558 29.4636 5.54082 29.4284 6.02271C29.3973 6.44424 29.3663 6.87306 29.2617 7.28054C29.1376 7.764 28.574 8.09966 28.0845 8.05491C27.5083 8.00235 27.1024 7.65992 27.0267 7.11089C26.9652 6.66542 26.9394 6.2137 26.9189 5.76407C26.8842 5.00271 26.8664 4.24084 26.839 3.42067C26.2102 3.36187 25.594 3.25779 24.9773 3.25831C24.1309 3.25935 23.2839 3.34001 22.4374 3.38633C22.2119 3.39882 22.113 3.52319 22.1057 3.73812C22.0962 4.0155 22.082 4.29236 22.0715 4.56921C22.041 5.37429 22.0195 6.1804 21.9785 6.98495C21.9443 7.65159 21.2608 8.06688 20.7924 8.07208C20.2424 8.07781 19.6715 7.58654 19.6152 7.00681C19.55 6.33496 19.5421 5.65739 19.5064 4.98242C19.499 4.83983 19.478 4.69776 19.4627 4.54684C17.3345 5.31444 14.5733 9.5183 14.7389 11.7056C21.2419 11.7056 27.7454 11.7056 34.2747 11.7056C33.7074 8.64921 32.3552 6.1346 29.4799 4.51197ZM24.4894 14.1697C24.4894 14.1546 24.4894 14.139 24.4894 14.1239C22.2813 14.1239 20.0737 14.113 17.8655 14.1281C16.701 14.1359 15.5364 14.1749 14.3735 14.229C13.8461 14.2535 13.5055 14.6131 13.4571 15.133C13.4366 15.3552 13.4476 15.5842 13.476 15.8059C13.5328 16.2513 13.629 16.3653 14.0822 16.408C14.7872 16.4741 15.4965 16.5365 16.2041 16.5396C20.6199 16.5584 25.0357 16.5641 29.4515 16.5646C30.8442 16.5646 32.2374 16.5459 33.6296 16.5131C34.1086 16.5017 34.5897 16.4413 35.0618 16.3591C35.2016 16.3346 35.3772 16.1816 35.4266 16.0484C35.5081 15.8267 35.5276 15.5722 35.5255 15.3323C35.5202 14.6604 35.1706 14.2884 34.5008 14.2155C34.2837 14.1921 34.0644 14.1723 33.8457 14.1718C30.7275 14.1687 27.6082 14.1697 24.4894 14.1697Z" fill="#57AEFF"/>
</g>
<defs>
<clipPath id="clip0">
<rect width="49" height="51" fill="white" transform="translate(0 0.799377)"/>
</clipPath>
</defs>
</svg>
