<svg width="24" height="21" viewBox="0 0 24 21" fill="none" xmlns="http://www.w3.org/2000/svg">
<path fill-rule="evenodd" clip-rule="evenodd" d="M11.5622 0.440585C11.4229 0.300925 11.2574 0.19012 11.0752 0.114518C10.893 0.0389147 10.6977 0 10.5004 0C10.3032 0 10.1078 0.0389147 9.92565 0.114518C9.74345 0.19012 9.57796 0.300925 9.43865 0.440585L0.440617 9.43862C0.300957 9.57793 0.190153 9.74342 0.114551 9.92562C0.0389481 10.1078 3.14713e-05 10.3031 3.14713e-05 10.5004C3.14713e-05 10.6977 0.0389481 10.893 0.114551 11.0752C0.190153 11.2574 0.300957 11.4229 0.440617 11.5622L9.43865 20.5602C9.72025 20.8418 10.1022 21 10.5004 21C10.8987 21 11.2806 20.8418 11.5622 20.5602C11.8438 20.2786 12.002 19.8967 12.002 19.4984C12.002 19.1002 11.8438 18.7183 11.5622 18.4367L3.62292 10.5004L11.5622 2.56412C11.7019 2.42482 11.8127 2.25933 11.8883 2.07713C11.9639 1.89493 12.0028 1.69961 12.0028 1.50235C12.0028 1.30509 11.9639 1.10977 11.8883 0.927578C11.8127 0.745382 11.7019 0.579891 11.5622 0.440585Z" fill="#57AEFF"/>
<path fill-rule="evenodd" clip-rule="evenodd" d="M23.9974 10.5006C23.9974 10.1029 23.8394 9.72146 23.5582 9.44022C23.2769 9.15898 22.8955 9.00098 22.4978 9.00098H3.00201C2.60427 9.00098 2.22282 9.15898 1.94158 9.44022C1.66034 9.72146 1.50234 10.1029 1.50234 10.5006C1.50234 10.8984 1.66034 11.2798 1.94158 11.5611C2.22282 11.8423 2.60427 12.0003 3.00201 12.0003H22.4978C22.8955 12.0003 23.2769 11.8423 23.5582 11.5611C23.8394 11.2798 23.9974 10.8984 23.9974 10.5006Z" fill="#57AEFF"/>
</svg>
