<svg width="24" height="21" viewBox="0 0 24 21" fill="none" xmlns="http://www.w3.org/2000/svg">
<path fill-rule="evenodd" clip-rule="evenodd" d="M12.4352 0.440585C12.5745 0.300925 12.74 0.19012 12.9222 0.114518C13.1044 0.0389147 13.2997 0 13.497 0C13.6942 0 13.8896 0.0389147 14.0718 0.114518C14.254 0.19012 14.4194 0.300925 14.5588 0.440585L23.5568 9.43862C23.6964 9.57793 23.8073 9.74342 23.8829 9.92562C23.9585 10.1078 23.9974 10.3031 23.9974 10.5004C23.9974 10.6977 23.9585 10.893 23.8829 11.0752C23.8073 11.2574 23.6964 11.4229 23.5568 11.5622L14.5588 20.5602C14.2772 20.8418 13.8952 21 13.497 21C13.0987 21 12.7168 20.8418 12.4352 20.5602C12.1536 20.2786 11.9954 19.8967 11.9954 19.4984C11.9954 19.1002 12.1536 18.7183 12.4352 18.4367L20.3745 10.5004L12.4352 2.56412C12.2956 2.42482 12.1848 2.25933 12.1091 2.07713C12.0335 1.89493 11.9946 1.69961 11.9946 1.50235C11.9946 1.30509 12.0335 1.10977 12.1091 0.927578C12.1848 0.745382 12.2956 0.579891 12.4352 0.440585Z" fill="#57AEFF"/>
<path fill-rule="evenodd" clip-rule="evenodd" d="M0 10.5006C0 10.1029 0.158001 9.72146 0.439244 9.44022C0.720488 9.15898 1.10194 9.00098 1.49967 9.00098H20.9954C21.3932 9.00098 21.7746 9.15898 22.0559 9.44022C22.3371 9.72146 22.4951 10.1029 22.4951 10.5006C22.4951 10.8984 22.3371 11.2798 22.0559 11.5611C21.7746 11.8423 21.3932 12.0003 20.9954 12.0003H1.49967C1.10194 12.0003 0.720488 11.8423 0.439244 11.5611C0.158001 11.2798 0 10.8984 0 10.5006Z" fill="#57AEFF"/>
</svg>
