<svg width="146" height="46" viewBox="0 0 146 46" fill="none" xmlns="http://www.w3.org/2000/svg">
<g clip-path="url(#clip0)">
<path d="M70.0172 0C70.1695 0.107855 70.3439 0.0539273 70.5054 0.0539273C73.0128 0.0613656 75.5183 0.0762421 78.0257 0.0520678C78.4919 0.0483486 78.5176 0.208271 78.4258 0.582043C78.3084 1.06181 78.1964 1.5453 78.1358 2.03436C78.0936 2.37652 77.9486 2.44347 77.6329 2.44161C75.2338 2.42487 72.8329 2.42673 70.4338 2.42487C67.1317 2.42115 63.8295 2.42301 60.5292 2.40627C60.1915 2.40441 60.0483 2.48809 60.0006 2.84327C59.9308 3.36209 59.8078 3.87533 59.6793 4.38485C59.6041 4.68052 59.6793 4.74746 59.9749 4.74932C61.0138 4.75304 62.06 4.64705 63.0898 4.79581C65.4705 5.13797 66.5149 6.84133 65.8266 9.18624C65.2631 11.109 63.5267 12.4944 61.4415 12.6394C59.5031 12.7733 57.5611 12.6655 55.6191 12.699C55.3548 12.7027 55.3236 12.6171 55.375 12.3698C56.2285 8.33642 57.0728 4.30117 57.919 0.265917C57.9374 0.176658 57.9704 0.089259 57.9961 0.00185956C62.0031 0 66.0102 0 70.0172 0ZM60.0538 10.3169C60.0538 10.315 60.0538 10.315 60.0538 10.3131C60.4668 10.3131 60.8798 10.3317 61.2909 10.3094C62.0582 10.2666 62.6676 9.92634 63.0714 9.25318C63.7506 8.11513 63.2219 7.06448 61.9187 7.00311C61.0799 6.96406 60.2373 6.99567 59.3967 6.9901C59.2241 6.98824 59.1232 7.01985 59.0828 7.22626C58.8937 8.18022 58.6881 9.13231 58.4789 10.0825C58.4367 10.2741 58.4972 10.3262 58.679 10.3224C59.1378 10.3113 59.5967 10.3169 60.0538 10.3169Z" fill="white"/>
<path d="M146 26.3927C145.842 26.5266 145.884 26.733 145.84 26.9022C145.341 28.8752 143.513 30.2364 141.508 30.1286C141.259 30.1156 141.237 30.0375 141.299 29.8273C141.356 29.6358 141.389 29.435 141.413 29.236C141.488 28.6409 141.608 28.2356 142.382 28.1221C143.548 27.9492 144.231 26.3314 143.744 25.2361C143.544 24.7879 143.188 24.5815 142.729 24.5685C142.057 24.5499 141.384 24.5704 140.712 24.5555C140.451 24.5499 140.427 24.7024 140.387 24.8995C139.849 27.501 139.297 30.0988 138.773 32.7022C138.709 33.0202 138.592 33.1002 138.298 33.0872C137.824 33.0648 137.349 33.0648 136.877 33.0872C136.584 33.1002 136.516 33.0276 136.582 32.7264C137.059 30.5228 137.52 28.3174 137.986 26.1101C138.206 25.0669 138.428 24.0255 138.643 22.9823C138.676 22.8224 138.691 22.6848 138.907 22.6866C140.451 22.7015 141.999 22.5955 143.535 22.7405C144.948 22.8726 145.684 23.6759 145.925 25.1245C145.934 25.1784 145.974 25.2268 146 25.277C146 25.6489 146 26.0208 146 26.3927Z" fill="white"/>
<path d="M72.7705 46C72.7724 45.7378 72.7797 45.4737 72.7742 45.2115C72.7687 44.9065 72.7081 44.635 73.178 44.5644C73.4993 44.516 73.5305 44.0958 73.5837 43.7945C73.714 43.047 73.7709 42.2883 73.7636 41.5314C73.7599 41.1707 73.8792 41.0889 74.2096 41.1019C74.8502 41.126 75.4927 41.1205 76.1351 41.1037C76.3958 41.0963 76.4747 41.18 76.471 41.444C76.4563 42.372 76.4728 43.3017 76.46 44.2297C76.4563 44.503 76.4912 44.6834 76.8198 44.6369C76.9042 44.6257 77.0033 44.6183 77.0639 44.7131C77.1704 44.8805 77.0455 45.8531 76.8987 46.0018C76.8381 46.0018 76.7757 46.0018 76.7151 46.0018C76.717 45.801 76.6968 45.5964 76.7262 45.3993C76.7776 45.0423 76.6362 44.9623 76.3003 44.9716C75.3844 44.9958 74.4648 44.9995 73.5488 44.9698C73.189 44.9586 73.0991 45.0758 73.1358 45.4105C73.1578 45.6225 73.2129 45.8679 72.9541 46.0018C72.8917 46 72.8311 46 72.7705 46ZM73.6534 44.6313C74.4134 44.6313 75.098 44.622 75.7827 44.6369C76.025 44.6425 76.0947 44.5625 76.0911 44.3208C76.0782 43.5026 76.0654 42.6844 76.0966 41.868C76.1112 41.5017 75.9846 41.4236 75.6579 41.4496C75.2944 41.4775 74.9255 41.4775 74.562 41.4496C74.2371 41.4236 74.1233 41.511 74.1032 41.8643C74.0462 42.7773 74.1252 43.7183 73.6534 44.6313Z" fill="white"/>
<path d="M87.6367 46C87.6367 45.7378 87.6367 45.4737 87.6348 45.2115C87.633 44.9121 87.5504 44.6034 88.035 44.5699C88.2644 44.5532 88.3324 44.252 88.3874 44.0195C88.5838 43.1864 88.5985 42.3329 88.6242 41.4849C88.6334 41.18 88.7215 41.0907 89.017 41.1019C89.6576 41.1223 90.3001 41.1223 90.9407 41.1019C91.2344 41.0926 91.3353 41.1725 91.328 41.4868C91.3059 42.398 91.3261 43.3129 91.317 44.2241C91.3151 44.4863 91.3243 44.6908 91.6694 44.6313C91.8988 44.5923 91.9796 44.7243 91.941 44.9307C91.875 45.2859 92.1191 45.6931 91.7648 45.9981C91.7043 45.9981 91.6418 45.9981 91.5813 45.9981C91.5813 45.7973 91.5574 45.5927 91.5849 45.3956C91.6345 45.0423 91.5005 44.9586 91.1628 44.9679C90.2175 44.9939 89.2703 44.9865 88.3232 44.9698C88.0589 44.966 87.9854 45.0479 87.9946 45.3082C88.0038 45.5462 88.0992 45.827 87.8184 45.9981C87.7578 46 87.6973 46 87.6367 46ZM88.5104 44.6313C89.2666 44.6313 89.9678 44.6239 90.6672 44.635C90.8929 44.6388 90.9498 44.5551 90.9462 44.3412C90.937 43.4765 90.9315 42.6118 90.948 41.7471C90.9535 41.4831 90.8452 41.444 90.625 41.4515C90.2597 41.4663 89.8871 41.4961 89.5291 41.4459C89.0409 41.3752 88.9528 41.6002 88.9418 42.0279C88.9197 42.8852 88.9454 43.7573 88.5104 44.6313Z" fill="white"/>
<path d="M67.4475 45.9999C67.5503 45.7321 67.4769 45.4532 67.4934 45.1799C67.5099 44.9232 67.3172 44.9809 67.1777 44.979C66.2305 44.9753 65.2816 44.966 64.3344 44.9846C64.0352 44.9902 63.9471 44.9084 63.9526 44.5997C63.971 43.5472 63.9581 42.4946 63.9618 41.4421C63.9618 41.3027 63.8976 41.1074 64.1527 41.1093C64.4134 41.1111 64.3326 41.3138 64.3326 41.4477C64.3381 42.3756 64.3509 43.3054 64.3271 44.2333C64.3179 44.5699 64.428 44.6499 64.7401 44.635C65.3054 44.6108 65.8726 44.6108 66.4361 44.635C66.75 44.648 66.8601 44.5643 66.851 44.2296C66.8271 43.3166 66.8399 42.4035 66.8473 41.4905C66.8491 41.3417 66.7592 41.1074 67.04 41.113C67.319 41.1167 67.2236 41.351 67.2254 41.4979C67.2328 42.4258 67.2364 43.3556 67.2236 44.2835C67.2199 44.5346 67.2768 44.6703 67.5503 44.6294C67.7963 44.5922 67.8587 44.7131 67.8605 44.9474C67.8642 45.297 67.7944 45.6522 67.9064 45.9981C67.7541 45.9999 67.5999 45.9999 67.4475 45.9999Z" fill="white"/>
<path d="M74.259 12.6767C74.9804 12.0221 75.5843 11.3527 76.0157 10.5363C76.1129 10.3541 76.2451 10.3225 76.4268 10.3262C76.9463 10.3336 77.4676 10.3132 77.9852 10.3355C78.2605 10.3467 78.3872 10.2686 78.4459 9.98218C79.0865 6.88229 79.7492 3.78612 80.3769 0.68437C80.4724 0.213901 80.6137 0.0446805 81.1258 0.0483997C84.1215 0.0800122 87.1171 0.0744335 90.1127 0.0539784C90.5643 0.0502592 90.5955 0.17485 90.5092 0.578375C89.685 4.44441 88.8756 8.31415 88.0808 12.1858C88 12.58 87.8495 12.7102 87.4548 12.686C86.8766 12.6507 86.2929 12.6618 85.7129 12.6823C85.3917 12.6934 85.287 12.6246 85.3641 12.2713C86.0249 9.19187 86.6637 6.10685 87.3282 3.02742C87.42 2.60344 87.3484 2.48815 86.9042 2.49744C85.6211 2.52906 84.3362 2.51604 83.0532 2.50116C82.7815 2.49744 82.6512 2.56439 82.5924 2.85076C81.9537 5.95065 81.2947 9.04682 80.6633 12.1486C80.5807 12.5502 80.454 12.6934 80.0245 12.686C78.2514 12.6562 76.4782 12.673 74.7051 12.673C74.5582 12.6767 74.4095 12.6767 74.259 12.6767Z" fill="white"/>
<path d="M26.2374 33.3606C24.2348 33.3606 22.2304 33.3532 20.2278 33.368C19.9139 33.3699 19.8515 33.2918 19.9158 32.9868C20.6004 29.7679 21.2759 26.549 21.9459 23.3264C22.0028 23.0549 22.1093 22.9452 22.3993 22.9638C22.8563 22.9917 23.3207 23.0084 23.7741 22.9619C24.2715 22.9117 24.1816 23.1739 24.1174 23.477C23.5887 25.9707 23.0748 28.4662 22.5314 30.958C22.458 31.3002 22.5461 31.3448 22.8453 31.3393C23.6401 31.3244 24.4349 31.3262 25.2297 31.3393C25.4757 31.343 25.5638 31.2649 25.617 31.0138C26.1456 28.4569 26.6963 25.9056 27.2194 23.3469C27.2855 23.027 27.4085 22.9508 27.7022 22.9656C28.1593 22.988 28.62 22.988 29.077 22.9656C29.3964 22.9508 29.5047 23.0159 29.4258 23.3747C28.8898 25.8517 28.3887 28.3342 27.8435 30.8093C27.7444 31.2593 27.8325 31.3634 28.2712 31.343C29.0036 31.3095 29.7397 31.3207 30.4721 31.3393C30.7511 31.3467 30.8685 31.2667 30.9273 30.9766C31.4376 28.4792 31.9754 25.9874 32.4783 23.4882C32.5609 23.0772 32.7023 22.9154 33.1263 22.9601C33.5503 23.0047 33.9816 22.9842 34.4093 22.9638C34.7103 22.9489 34.7966 23.0084 34.725 23.3469C34.1046 26.231 33.5081 29.1208 32.9005 32.0087C32.8087 32.4438 32.8326 33.0222 32.5646 33.2732C32.2672 33.5503 31.6909 33.3532 31.2356 33.355C29.5708 33.368 27.9041 33.3606 26.2374 33.3606Z" fill="white"/>
<path d="M70.175 33.011C69.1049 33.011 68.0348 32.9998 66.9647 33.0166C66.6177 33.0222 66.4911 32.9831 66.5829 32.5647C67.2602 29.4258 67.9136 26.2812 68.5598 23.1349C68.6332 22.7815 68.7341 22.5937 69.1435 22.6365C69.5822 22.683 70.03 22.6588 70.4724 22.6439C70.7587 22.6346 70.8781 22.6737 70.801 23.0251C70.265 25.5002 69.7529 27.9809 69.2297 30.4578C69.1141 31.0101 69.1104 31.0101 69.6813 31.0101C70.5991 31.0101 71.515 31.0008 72.4328 31.0157C72.7099 31.0194 72.8237 30.9432 72.8843 30.6475C73.3854 28.1966 73.9012 25.7494 74.428 23.3041C74.5951 22.5268 74.406 22.6625 75.2302 22.6477C75.612 22.6402 75.9956 22.6662 76.3755 22.6402C76.7004 22.6198 76.7647 22.7425 76.7004 23.0419C76.3168 24.8233 75.9442 26.6067 75.5679 28.39C75.399 29.1915 75.2375 29.9929 75.0613 30.7925C75.0044 31.0473 75.0539 31.1366 75.3366 31.1403C76.2232 31.1533 76.2195 31.1663 76.0231 32.0756C75.8855 32.7098 75.7331 33.342 75.6321 33.9817C75.5807 34.3071 75.4394 34.3815 75.1476 34.3685C74.7199 34.348 74.2922 34.3573 73.8645 34.3648C73.6626 34.3685 73.5965 34.3164 73.6497 34.0951C73.7323 33.753 73.9361 33.2249 73.7966 33.0928C73.5506 32.8585 73.0771 33.0203 72.6989 33.0147C71.8564 33.0036 71.0157 33.011 70.175 33.011Z" fill="#F65E27"/>
<path d="M79.0132 33.0817C79.7272 29.6749 80.4302 26.3203 81.1296 22.9638C81.1718 22.7648 81.2562 22.6848 81.4673 22.6867C84.0353 22.6941 86.605 22.6941 89.173 22.6848C89.4722 22.683 89.4832 22.789 89.43 23.0437C88.7435 26.2608 88.0625 29.4797 87.3998 32.7023C87.3356 33.0129 87.2273 33.104 86.9263 33.0872C86.4545 33.0612 85.9773 33.0631 85.5055 33.0872C85.1917 33.104 85.1201 33.0166 85.188 32.7004C85.6928 30.3611 86.1774 28.0162 86.6766 25.675C86.8804 24.7155 86.8877 24.7173 85.9259 24.7173C85.0705 24.7173 84.2133 24.7322 83.3579 24.708C83.0551 24.6987 82.9394 24.7936 82.8789 25.0893C82.3631 27.6015 81.8253 30.1082 81.3168 32.6205C81.2471 32.9664 81.1406 33.1133 80.768 33.0891C80.2026 33.0556 79.6373 33.0817 79.0132 33.0817Z" fill="white"/>
<path d="M117.483 33.0816C117.856 31.2908 118.219 29.541 118.586 27.7911C118.915 26.2198 119.256 24.6503 119.572 23.0753C119.632 22.774 119.748 22.668 120.051 22.6848C120.508 22.7108 120.97 22.722 121.426 22.6829C121.83 22.6476 121.835 22.8187 121.763 23.1329C121.528 24.1873 121.319 25.2491 121.079 26.3035C121.013 26.5954 121.062 26.6754 121.367 26.6717C122.437 26.6549 123.507 26.6549 124.577 26.6717C124.871 26.6773 124.959 26.5768 125.014 26.2923C125.225 25.2008 125.484 24.1185 125.695 23.0269C125.748 22.748 125.859 22.6773 126.117 22.6866C126.606 22.7034 127.098 22.7127 127.584 22.6848C127.929 22.6643 127.953 22.7982 127.891 23.0902C127.366 25.5522 126.853 28.0161 126.334 30.4801C126.172 31.2499 125.993 32.0179 125.846 32.7915C125.802 33.0202 125.717 33.0946 125.491 33.0872C124.957 33.0723 124.421 33.0686 123.887 33.0872C123.616 33.0965 123.592 33.0035 123.645 32.7636C123.911 31.5568 124.155 30.3462 124.423 29.1393C124.493 28.8195 124.476 28.6744 124.08 28.6874C123.041 28.7172 122 28.7098 120.961 28.6893C120.649 28.6837 120.548 28.799 120.491 29.091C120.258 30.2885 119.99 31.4787 119.757 32.6762C119.697 32.9849 119.59 33.1113 119.256 33.0909C118.676 33.0574 118.096 33.0816 117.483 33.0816Z" fill="white"/>
<path d="M3.49669 26.8427C4.21806 26.8427 4.90272 26.839 5.58922 26.8446C5.87924 26.8465 6.17292 26.8409 6.45927 26.8874C8.29115 27.1849 9.13918 28.5703 8.60687 30.4391C7.9993 32.5776 6.02057 33.3865 4.29699 33.3642C4.07672 33.3605 4.09141 33.2489 4.12261 33.1002C4.21989 32.6148 4.32819 32.1313 4.40529 31.6441C4.45117 31.3596 4.64391 31.421 4.81828 31.4117C5.72321 31.3633 6.40971 30.7887 6.54004 29.9668C6.64283 29.3178 6.30876 28.7841 5.67182 28.7339C4.88069 28.6726 4.08223 28.706 3.28743 28.6986C3.0378 28.6967 3.05615 28.8957 3.02311 29.0556C2.74961 30.3722 2.4651 31.685 2.20996 33.0053C2.15306 33.2954 2.04109 33.3828 1.76025 33.3698C1.27199 33.3475 0.7819 33.3549 0.291807 33.3679C0.066034 33.3735 -0.0440992 33.3382 0.0146385 33.0667C0.710314 29.8032 1.40048 26.5378 2.08331 23.2705C2.13103 23.0437 2.2118 22.9674 2.43941 22.9693C4.62555 22.9767 6.81353 22.9786 8.99968 22.9693C9.26767 22.9674 9.31172 23.0697 9.26033 23.3003C9.15937 23.7521 9.05658 24.2059 8.97765 24.6615C8.92809 24.9516 8.73352 24.92 8.53345 24.9181C7.12558 24.9162 5.71954 24.9274 4.31167 24.9088C3.99596 24.9051 3.84728 24.9757 3.79955 25.3123C3.7298 25.8125 3.60682 26.3072 3.49669 26.8427Z" fill="white"/>
<path d="M53.3503 24.6466C52.862 24.6466 52.3701 24.6764 51.8837 24.6373C51.5166 24.6076 51.3807 24.7433 51.311 25.0911C50.7989 27.5866 50.2611 30.0766 49.7563 32.5739C49.6865 32.9198 49.569 33.0407 49.2258 33.0165C48.7853 32.9868 48.3392 32.9886 47.8969 33.0165C47.5463 33.0388 47.4563 32.9533 47.5371 32.5851C47.9923 30.5043 48.4237 28.4178 48.8624 26.3333C49.0955 25.2305 49.3323 24.1278 49.5507 23.0232C49.6039 22.7517 49.6957 22.6383 49.9949 22.6383C52.5169 22.6513 55.0372 22.6513 57.5592 22.6402C57.8933 22.6383 57.9282 22.7443 57.8639 23.0474C57.1903 26.218 56.524 29.3922 55.8705 32.5684C55.7989 32.918 55.6649 33.0519 55.2996 33.0202C54.8444 32.9812 54.3837 32.9961 53.9248 33.0165C53.6238 33.0295 53.5724 32.9421 53.6366 32.6446C54.1689 30.1695 54.6847 27.6907 55.206 25.2119C55.3253 24.6485 55.3272 24.6485 54.771 24.6485C54.2974 24.6466 53.8239 24.6466 53.3503 24.6466Z" fill="#F65E27"/>
<path d="M46.098 26.2199C46.0374 26.2199 45.975 26.2143 45.9144 26.2217C45.4115 26.2849 45.0462 26.2459 44.9177 25.5857C44.8057 25.0167 44.2808 24.7471 43.7264 24.6281C41.5183 24.1557 39.602 25.4872 39.0972 27.8358C38.9962 28.31 38.9467 28.7879 39.0256 29.2658C39.2183 30.4262 40.0829 31.1105 41.3641 31.1105C42.5333 31.1105 43.4768 30.64 44.0972 29.6191C44.2753 29.3253 44.4643 29.2212 44.7911 29.2416C45.2481 29.2695 45.7088 29.2658 46.1659 29.2435C46.5018 29.2268 46.5495 29.316 46.4155 29.6266C45.4812 31.7948 43.2474 33.2081 40.8758 33.117C40.4463 33.1002 40.0223 33.0612 39.6056 32.9478C37.7664 32.4457 36.6908 30.9878 36.7275 29.039C36.7862 25.8721 38.9155 23.2687 41.9772 22.6421C43.0785 22.4171 44.167 22.458 45.2096 22.9359C46.4082 23.4844 47.0139 24.4514 47.1608 25.7531C47.1993 26.099 47.1314 26.2812 46.7404 26.2254C46.5293 26.1957 46.3127 26.2199 46.098 26.2199Z" fill="#F65E27"/>
<path d="M17.6194 33.3606C16.5401 33.3606 16.5401 33.3606 16.3217 32.3099C16.1822 31.6405 16.1822 31.6405 15.5159 31.6405C14.4457 31.6405 13.3774 31.6498 12.3073 31.6349C12.0173 31.6312 11.8301 31.7074 11.6704 31.9659C11.3785 32.4345 11.1362 33.0593 10.7049 33.2825C10.2533 33.5149 9.60353 33.3624 9.04002 33.3568C8.82159 33.355 8.5022 33.4796 8.40492 33.2899C8.29111 33.0668 8.5591 32.851 8.6931 32.6502C10.7893 29.5336 12.8873 26.417 14.9854 23.3003C15.2405 22.921 15.7435 22.7499 16.1601 22.8838C16.3125 22.9321 16.3143 23.053 16.3437 23.1702C17.155 26.4021 17.9663 29.634 18.7795 32.8641C18.8657 33.2044 18.8088 33.4052 18.3977 33.3643C18.1407 33.3401 17.8782 33.3606 17.6194 33.3606ZM15.1047 26.3017C14.3686 27.5141 13.7042 28.6112 13.0067 29.7623C13.8951 29.7623 14.7027 29.7586 15.5122 29.7642C15.7104 29.766 15.7728 29.7195 15.7269 29.4983C15.514 28.4755 15.325 27.4472 15.1047 26.3017Z" fill="white"/>
<path d="M97.6662 33.0817C96.5649 33.0817 96.5373 33.0872 96.3556 31.9994C96.2712 31.4899 96.0766 31.3262 95.5608 31.3485C94.4778 31.3932 93.3912 31.3709 92.3082 31.356C92.0347 31.3523 91.8658 31.4359 91.7098 31.6721C91.3959 32.1444 91.1922 32.8009 90.7149 33.0222C90.2597 33.2341 89.6375 33.0854 89.0868 33.0798C88.8647 33.0779 88.5398 33.1932 88.4407 33.024C88.3122 32.8046 88.5802 32.5833 88.7142 32.3843C90.8269 29.2417 92.9433 26.1009 95.0579 22.9601C95.2653 22.6514 95.8875 22.471 96.2198 22.6123C96.3464 22.6663 96.3409 22.7741 96.3666 22.8764C97.1834 26.1232 98.0003 29.3681 98.8134 32.6149C98.8905 32.9236 98.8318 33.1281 98.4426 33.0891C98.1875 33.0612 97.925 33.0817 97.6662 33.0817ZM95.1331 26.0228C94.4044 27.2278 93.7418 28.3193 93.0369 29.4834C93.9437 29.4834 94.7477 29.4797 95.5516 29.4853C95.7627 29.4871 95.7994 29.4183 95.7572 29.2101C95.5461 28.1873 95.3534 27.1627 95.1331 26.0228Z" fill="white"/>
<path d="M104.713 22.6885C105.37 22.7257 106.198 22.6216 107.018 22.748C108.289 22.9433 109.103 23.7819 109.285 25.0669C109.674 27.832 107.806 30.0579 105.04 30.1174C104.382 30.1323 103.723 30.1398 103.066 30.1137C102.751 30.1007 102.652 30.2253 102.598 30.5154C102.459 31.276 102.281 32.0272 102.141 32.7878C102.099 33.0221 102.005 33.0927 101.78 33.0872C101.275 33.0742 100.77 33.063 100.265 33.089C99.9478 33.1058 99.878 33.0072 99.9441 32.7022C100.357 30.7832 100.759 28.8641 101.163 26.9432C101.431 25.6731 101.701 24.403 101.958 23.1311C102.02 22.8242 102.114 22.6569 102.481 22.6773C103.169 22.7145 103.857 22.6885 104.713 22.6885ZM104.296 28.2374C104.572 28.2374 104.845 28.2393 105.12 28.2374C106.493 28.2244 107.501 26.9506 107.213 25.5931C107.066 24.8995 106.715 24.5852 106.009 24.5629C105.399 24.5443 104.788 24.576 104.179 24.5518C103.887 24.5406 103.79 24.6522 103.738 24.9274C103.595 25.6843 103.417 26.4355 103.261 27.1886C103.193 27.5196 102.984 27.9808 103.121 28.1537C103.307 28.3881 103.773 28.2095 104.116 28.2337C104.173 28.2411 104.236 28.2374 104.296 28.2374Z" fill="white"/>
<path d="M131.371 33.0816C130.424 33.0816 129.475 33.0723 128.527 33.0872C128.252 33.0909 128.147 33.0463 128.214 32.7339C128.898 29.5168 129.576 26.296 130.245 23.0753C130.304 22.7889 130.409 22.6792 130.721 22.6811C132.555 22.6996 134.39 22.6959 136.224 22.6848C136.523 22.6829 136.639 22.7387 136.547 23.066C136.442 23.436 136.341 23.8154 136.307 24.1966C136.27 24.5927 136.081 24.6503 135.737 24.6429C134.667 24.6206 133.597 24.6466 132.527 24.628C132.228 24.6224 132.092 24.7024 132.048 25.0167C131.98 25.4909 131.875 25.9595 131.763 26.4244C131.696 26.7052 131.786 26.7628 132.048 26.7591C133.058 26.7461 134.067 26.7721 135.075 26.7442C135.466 26.733 135.501 26.8651 135.407 27.1924C135.313 27.5178 135.227 27.8525 135.2 28.1891C135.167 28.5963 135.005 28.7228 134.598 28.7098C133.621 28.6763 132.641 28.706 131.663 28.693C131.393 28.6893 131.253 28.7414 131.207 29.0519C131.128 29.5856 130.998 30.1119 130.871 30.6381C130.798 30.945 130.844 31.0695 131.2 31.0621C132.345 31.0398 133.493 31.0602 134.64 31.0491C134.899 31.0472 134.99 31.09 134.913 31.3801C134.794 31.8264 134.699 32.282 134.631 32.7394C134.59 33.0128 134.48 33.0909 134.214 33.0872C133.267 33.0723 132.32 33.0816 131.371 33.0816Z" fill="white"/>
<path d="M74.9146 6.77622C74.7916 6.77622 74.6686 6.76507 74.5475 6.77808C74.1161 6.82829 73.8096 6.7911 73.749 6.2165C73.7031 5.77206 73.325 5.52102 72.8955 5.40759C71.6344 5.07472 70.3716 5.55449 69.6429 6.65349C69.2427 7.25599 69.0151 7.92543 68.9967 8.65438C68.9674 9.88541 69.6796 10.6051 70.8947 10.5679C71.8327 10.54 72.5834 10.1495 73.0533 9.31081C73.213 9.0263 73.3947 8.93146 73.7049 8.94633C74.2079 8.97051 74.7145 8.96307 75.2174 8.94819C75.5111 8.9389 75.5423 9.02444 75.445 9.29593C74.6925 11.3898 72.5247 12.8142 70.3018 12.6729C69.3951 12.6153 68.5507 12.3921 67.8458 11.784C66.7335 10.8264 66.5224 9.55255 66.75 8.19135C67.2364 5.28299 69.2556 3.43459 72.1429 3.21144C72.9157 3.15194 73.6719 3.27839 74.3639 3.64844C75.4707 4.24164 75.9755 5.19931 75.9957 6.4508C75.9994 6.73159 75.8911 6.79482 75.647 6.77808C75.4047 6.76321 75.1605 6.77622 74.9146 6.77622Z" fill="#F65E27"/>
<path d="M111.227 33.0817C111.794 30.3667 112.341 27.7057 112.916 25.0502C112.995 24.6839 112.925 24.6058 112.569 24.6188C111.897 24.6467 111.224 24.6169 110.552 24.6318C110.313 24.6374 110.264 24.5518 110.311 24.3361C110.412 23.8843 110.506 23.4305 110.598 22.9768C110.64 22.7629 110.741 22.6848 110.972 22.6848C113.296 22.6941 115.618 22.696 117.942 22.6848C118.217 22.683 118.245 22.7815 118.191 23.0103C118.092 23.4305 117.991 23.8526 117.925 24.2785C117.885 24.5425 117.788 24.6411 117.514 24.6318C116.842 24.6113 116.169 24.6355 115.497 24.6206C115.231 24.6151 115.108 24.6671 115.045 24.974C114.522 27.5457 113.966 30.1119 113.439 32.6837C113.379 32.9831 113.289 33.1021 112.977 33.0872C112.411 33.0631 111.848 33.0817 111.227 33.0817Z" fill="white"/>
<path d="M63.411 22.6364C64.3141 22.6364 65.2172 22.6588 66.1185 22.6272C66.5535 22.6104 66.6031 22.7722 66.504 23.1367C66.3773 23.596 66.4177 24.2078 66.1332 24.4886C65.8175 24.7973 65.2025 24.5741 64.7198 24.5853C63.9709 24.6039 63.2201 24.6001 62.4712 24.5853C62.2088 24.5797 62.0839 24.6634 62.0399 24.9311C61.9628 25.3886 61.8692 25.8423 61.759 26.2923C61.6856 26.5936 61.7554 26.694 62.0784 26.6884C63.0715 26.6698 64.0663 26.6922 65.0612 26.6754C65.3843 26.6698 65.5054 26.7368 65.4063 27.0882C65.2943 27.488 65.2191 27.9009 65.153 28.3137C65.1126 28.5629 65.0006 28.6354 64.7565 28.6335C62.9668 28.6261 61.1772 28.6261 59.3893 28.6391C59.0993 28.641 59.0608 28.5331 59.114 28.2839C59.494 26.5174 59.8739 24.7489 60.2392 22.9786C60.2924 22.7201 60.3916 22.6272 60.6614 22.6327C61.5755 22.6476 62.4933 22.6364 63.411 22.6364Z" fill="#F65E27"/>
<path d="M61.7571 31.0119C62.6896 31.0119 63.6202 31.0231 64.5526 31.0063C64.8665 31.0008 64.9546 31.0956 64.8794 31.4043C64.7692 31.8543 64.6811 32.308 64.5949 32.7636C64.5582 32.9496 64.4627 33.0147 64.2791 33.0147C62.3243 33.0109 60.3694 33.0091 58.4145 33.0147C58.2035 33.0147 58.1466 32.9328 58.1888 32.7357C58.2916 32.2522 58.398 31.7706 58.488 31.2853C58.532 31.0491 58.6623 31.0063 58.8734 31.0082C59.8334 31.0138 60.7953 31.0101 61.7571 31.0119C61.7571 31.0101 61.7571 31.0101 61.7571 31.0119Z" fill="#F65E27"/>
<path d="M87.3888 44.9345C87.0896 45.0349 86.9317 44.9475 86.7922 44.7374C86.5389 44.3525 86.214 44.0066 86.0048 43.5994C85.7625 43.1252 85.3788 43.1977 84.9897 43.2014C84.7694 43.2033 84.8117 43.3632 84.8117 43.4952C84.808 43.8969 84.8117 44.3004 84.8098 44.7021C84.8098 44.836 84.8465 44.9866 84.6189 44.981C84.3968 44.9754 84.4335 44.823 84.4335 44.6909C84.4299 44.3655 84.4519 44.0401 84.4244 43.7165C84.4097 43.5454 84.5767 43.2423 84.2867 43.2219C84.0003 43.2014 83.6498 43.0378 83.4093 43.3985C83.1119 43.8467 82.7779 44.2725 82.4823 44.7225C82.3337 44.9494 82.1648 45.0405 81.8674 44.9364C82.2731 44.3674 82.6641 43.8002 83.0789 43.2498C83.2257 43.0545 83.2257 42.9243 83.0826 42.7309C82.7118 42.2289 82.3649 41.7082 82.0014 41.1838C82.2749 41.0332 82.4034 41.1596 82.5227 41.3418C82.8127 41.777 83.1174 42.2028 83.4056 42.6398C83.4974 42.7793 83.5928 42.85 83.7691 42.8593C84.4317 42.8946 84.4317 42.902 84.4317 42.2121C84.4317 41.9183 84.4354 41.6245 84.4299 41.3307C84.4262 41.1726 84.4904 41.1038 84.6465 41.1113C84.7988 41.1168 84.8098 41.2154 84.8098 41.3325C84.808 41.751 84.8172 42.1675 84.8061 42.5859C84.8006 42.783 84.8649 42.8462 85.0613 42.8593C85.4816 42.8871 85.8194 42.8369 86.0396 42.3888C86.2214 42.0187 86.5059 41.7026 86.728 41.3511C86.851 41.1577 86.9868 41.0536 87.275 41.1559C86.9207 41.6691 86.594 42.1824 86.225 42.6603C86.0268 42.9169 86.0488 43.088 86.2397 43.3334C86.6344 43.8411 86.9923 44.3767 87.3888 44.9345Z" fill="white"/>
<path d="M95.3312 44.397C94.8558 44.9828 94.2758 45.0516 93.6627 44.9754C93.0313 44.8973 92.633 44.451 92.6458 43.8689C92.6587 43.298 93.0441 42.8982 93.6829 42.8462C94.1234 42.8108 94.5695 42.809 95.0118 42.8313C95.311 42.8462 95.3716 42.7346 95.3588 42.4594C95.3294 41.8178 94.999 41.4682 94.3584 41.4348C93.9178 41.4106 93.5122 41.5129 93.1359 41.749C93.0441 41.8067 92.9597 41.9461 92.8367 41.7732C92.6972 41.5779 92.8716 41.524 92.9744 41.4608C93.5764 41.0889 94.2244 40.968 94.9072 41.18C95.4046 41.3343 95.7075 41.7583 95.7222 42.3478C95.7424 43.1065 95.7369 43.8652 95.7295 44.622C95.7277 44.7466 95.8397 44.9623 95.5772 44.9754C95.2872 44.9902 95.3973 44.7578 95.3716 44.6109C95.3606 44.5663 95.3532 44.5216 95.3312 44.397ZM94.4483 43.1195C94.1583 43.1381 93.8206 43.0786 93.4938 43.2032C93.2277 43.3055 93.0625 43.4821 93.0331 43.7759C93.0037 44.0735 93.0808 44.3227 93.336 44.5012C93.9197 44.9084 94.9145 44.6704 95.2596 44.0363C95.5662 43.4747 95.3734 43.1195 94.764 43.1195C94.6723 43.1195 94.5805 43.1195 94.4483 43.1195Z" fill="white"/>
<path d="M79.7714 43.1344C79.3437 43.1344 78.9142 43.1604 78.4883 43.127C78.1157 43.0972 78.1304 43.2832 78.1928 43.5416C78.4333 44.5253 79.7255 44.9902 80.6213 44.4138C80.6727 44.3803 80.7185 44.3394 80.7699 44.3059C80.858 44.2501 80.9205 44.0809 81.0618 44.2446C81.2086 44.4138 81.0636 44.4919 80.9682 44.5793C80.0522 45.4142 78.3745 45.0219 77.9193 43.8429C77.6201 43.0675 77.7027 42.3106 78.2662 41.6728C78.7729 41.1 79.4281 40.9606 80.1495 41.1707C80.8507 41.3752 81.372 42.0912 81.4069 42.8331C81.4197 43.086 81.339 43.1511 81.1022 43.1418C80.658 43.1214 80.2138 43.1344 79.7714 43.1344ZM79.6044 42.8387C80.0008 42.8387 80.3973 42.8276 80.7938 42.8424C81.0177 42.8517 81.0434 42.7569 81.0086 42.5672C80.8874 41.9275 80.3055 41.4441 79.6282 41.4329C78.9252 41.4199 78.3525 41.8457 78.1965 42.491C78.1396 42.7272 78.1543 42.8666 78.4608 42.8462C78.8408 42.8201 79.2226 42.8387 79.6044 42.8387Z" fill="white"/>
<path d="M61.1367 43.1344C60.709 43.1344 60.2795 43.1567 59.8536 43.1269C59.5214 43.1046 59.5085 43.2571 59.5636 43.5119C59.7949 44.5755 61.1752 45.0144 62.126 44.3264C62.216 44.2613 62.2894 44.0549 62.4473 44.252C62.5868 44.4249 62.4326 44.5012 62.3371 44.5867C61.7222 45.1353 60.5475 45.1409 59.8628 44.6016C59.1304 44.027 58.9212 42.9075 59.3819 42.0372C59.7931 41.2581 60.6833 40.9011 61.5387 41.1726C62.2398 41.3938 62.7593 42.106 62.7813 42.8443C62.7868 43.0581 62.7483 43.1511 62.5115 43.1418C62.0526 43.1214 61.5937 43.1344 61.1367 43.1344ZM60.9605 42.8387C61.3569 42.8387 61.7534 42.8238 62.1499 42.8443C62.4032 42.8573 62.4252 42.7476 62.3812 42.5412C62.2472 41.9015 61.6672 41.4366 60.9825 41.4329C60.285 41.4273 59.7141 41.868 59.5691 42.5152C59.5196 42.7346 59.5361 42.861 59.8151 42.8443C60.1969 42.822 60.5787 42.8387 60.9605 42.8387Z" fill="white"/>
<path d="M54.6277 43.0358C54.6277 42.5095 54.6387 41.9852 54.624 41.4589C54.6167 41.2079 54.6791 41.0981 54.9526 41.1037C55.852 41.1186 56.7533 41.1186 57.6545 41.1037C57.9262 41.1 57.9868 41.206 57.9831 41.4589C57.9721 42.5244 57.9794 43.5918 57.9776 44.6573C57.9776 44.8005 58.029 44.9865 57.7757 44.9791C57.5132 44.9716 57.6031 44.7689 57.6013 44.6388C57.5939 43.696 57.5866 42.7532 57.6031 41.8104C57.6086 41.524 57.5279 41.4384 57.2452 41.4477C56.6211 41.4701 55.9933 41.4682 55.3693 41.4477C55.0921 41.4384 55.0003 41.5165 55.0058 41.8066C55.0242 42.7029 55.0205 43.5993 55.004 44.4956C55.0003 44.6555 55.1637 44.9623 54.8333 44.966C54.4717 44.9698 54.6461 44.6462 54.6369 44.4714C54.6112 43.9935 54.6277 43.5137 54.6277 43.0358Z" fill="white"/>
<path d="M72.3264 43.0656C72.3209 44.1943 71.5334 44.9977 70.4302 44.9995C69.3087 45.0014 68.5231 44.1832 68.5286 43.0265C68.5359 41.9015 69.3326 41.0851 70.4247 41.0833C71.5334 41.0777 72.3337 41.9145 72.3264 43.0656ZM68.9122 43.0656C68.9177 43.9991 69.5712 44.676 70.4486 44.6611C71.3297 44.6462 71.9501 43.9656 71.9446 43.0228C71.9391 42.0837 71.304 41.4292 70.4064 41.4366C69.5216 41.4459 68.9067 42.1153 68.9122 43.0656Z" fill="white"/>
<path d="M52.126 44.9977C51.2963 44.9996 50.6539 44.5868 50.351 43.8578C50.0316 43.0917 50.195 42.173 50.7475 41.6226C51.2835 41.0871 52.1499 40.9308 52.8749 41.234C53.0603 41.3121 53.231 41.4143 53.3687 41.5594C53.4531 41.6486 53.6165 41.736 53.4476 41.8941C53.3246 42.0094 53.2402 41.9406 53.1429 41.8402C52.8217 41.5055 52.416 41.4143 51.97 41.4441C51.3275 41.4869 50.8246 41.8997 50.6484 42.5375C50.4446 43.2739 50.6759 44.0159 51.2284 44.3989C51.7552 44.7634 52.5335 44.7485 53.0328 44.3617C53.0933 44.3153 53.1484 44.2613 53.1998 44.2037C53.3026 44.0884 53.3889 44.1479 53.4715 44.226C53.5669 44.3171 53.4971 44.3915 53.4366 44.4584C53.086 44.8489 52.6381 45.0014 52.126 44.9977Z" fill="white"/>
</g>
<defs>
<clipPath id="clip0">
<rect width="146" height="46" fill="white"/>
</clipPath>
</defs>
</svg>
